STARTFONT 2.1
FONT -FontForge-Archivo Narrow-Bold-R-Normal--12-120-75-75-P-52-ISO10646-1
SIZE 12 75 75
FONTBOUNDINGBOX 20 17 -7 -3
COMMENT "Generated by fontforge, http://fontforge.sourceforge.net"
COMMENT "Copyright 2019 The Archivo Narrow Project Authors (https://github.com/Omnibus-Type/ArchivoNarrow)"
STARTPROPERTIES 41
FOUNDRY "FontForge"
FAMILY_NAME "Archivo Narrow"
WEIGHT_NAME "Bold"
SLANT "R"
SETWIDTH_NAME "Normal"
ADD_STYLE_NAME ""
PIXEL_SIZE 12
POINT_SIZE 120
RESOLUTION_X 75
RESOLUTION_Y 75
SPACING "P"
AVERAGE_WIDTH 52
CHARSET_REGISTRY "ISO10646"
CHARSET_ENCODING "1"
FONTNAME_REGISTRY ""
CHARSET_COLLECTIONS "ISO8859-2 ISO8859-9 ISO8859-4 Symbol ISO10646-1"
FONT_NAME "ArchivoNarrow-Bold"
FACE_NAME "Archivo Narrow Bold"
COPYRIGHT "Copyright 2019 The Archivo Narrow Project Authors (https://github.com/Omnibus-Type/ArchivoNarrow)"
FONT_VERSION "2.001"
FONT_ASCENT 10
FONT_DESCENT 2
UNDERLINE_POSITION -1
UNDERLINE_THICKNESS 1
X_HEIGHT 6
CAP_HEIGHT 8
DEFAULT_CHAR 791
RAW_ASCENT 800
RAW_DESCENT 200
NORM_SPACE 3
RELATIVE_WEIGHT 70
RELATIVE_SETWIDTH 50
SUPERSCRIPT_X 0
SUPERSCRIPT_Y 4
SUPERSCRIPT_SIZE 7
SUBSCRIPT_X 0
SUBSCRIPT_Y 0
SUBSCRIPT_SIZE 7
FIGURE_WIDTH 5
AVG_LOWERCASE_WIDTH 52
AVG_UPPERCASE_WIDTH 69
ENDPROPERTIES
CHARS 795
STARTCHAR uni0000.dup1
ENCODING 0
SWIDTH 600 0
DWIDTH 7 0
BBX 1 1 0 0
BITMAP
00
ENDCHAR
STARTCHAR nonmarkingreturn
ENCODING 13
SWIDTH 228 0
DWIDTH 3 0
BBX 1 1 0 0
BITMAP
00
ENDCHAR
STARTCHAR space
ENCODING 32
SWIDTH 228 0
DWIDTH 3 0
BBX 1 1 0 0
BITMAP
00
ENDCHAR
STARTCHAR exclam
ENCODING 33
SWIDTH 273 0
DWIDTH 3 0
BBX 2 9 1 0
BITMAP
C0
80
80
80
80
80
00
80
80
ENDCHAR
STARTCHAR quotedbl
ENCODING 34
SWIDTH 389 0
DWIDTH 5 0
BBX 3 4 1 5
BITMAP
A0
A0
A0
A0
ENDCHAR
STARTCHAR numbersign
ENCODING 35
SWIDTH 456 0
DWIDTH 5 0
BBX 5 9 0 0
BITMAP
28
28
78
50
50
F8
50
50
A0
ENDCHAR
STARTCHAR dollar
ENCODING 36
SWIDTH 456 0
DWIDTH 5 0
BBX 5 10 0 -1
BITMAP
20
30
78
E8
70
38
E8
78
20
20
ENDCHAR
STARTCHAR percent
ENCODING 37
SWIDTH 729 0
DWIDTH 9 0
BBX 8 9 0 0
BITMAP
62
D2
94
D8
6F
15
15
25
67
ENDCHAR
STARTCHAR ampersand
ENCODING 38
SWIDTH 592 0
DWIDTH 7 0
BBX 7 9 0 0
BITMAP
38
68
68
38
74
5C
CC
4C
7E
ENDCHAR
STARTCHAR quotesingle
ENCODING 39
SWIDTH 195 0
DWIDTH 2 0
BBX 2 4 0 5
BITMAP
C0
C0
C0
40
ENDCHAR
STARTCHAR parenleft
ENCODING 40
SWIDTH 273 0
DWIDTH 3 0
BBX 3 11 0 -2
BITMAP
20
40
40
40
C0
C0
C0
40
40
40
20
ENDCHAR
STARTCHAR parenright
ENCODING 41
SWIDTH 273 0
DWIDTH 3 0
BBX 3 11 0 -2
BITMAP
80
40
40
60
20
20
20
60
40
40
80
ENDCHAR
STARTCHAR asterisk
ENCODING 42
SWIDTH 319 0
DWIDTH 4 0
BBX 4 4 0 5
BITMAP
40
F0
F0
40
ENDCHAR
STARTCHAR plus
ENCODING 43
SWIDTH 479 0
DWIDTH 6 0
BBX 5 7 0 0
BITMAP
20
20
20
F8
20
20
20
ENDCHAR
STARTCHAR comma
ENCODING 44
SWIDTH 228 0
DWIDTH 3 0
BBX 1 4 1 -2
BITMAP
80
80
80
80
ENDCHAR
STARTCHAR hyphen
ENCODING 45
SWIDTH 273 0
DWIDTH 3 0
BBX 3 1 0 3
BITMAP
E0
ENDCHAR
STARTCHAR period
ENCODING 46
SWIDTH 228 0
DWIDTH 3 0
BBX 1 2 1 0
BITMAP
80
80
ENDCHAR
STARTCHAR slash
ENCODING 47
SWIDTH 228 0
DWIDTH 3 0
BBX 3 10 0 -1
BITMAP
20
40
40
40
40
40
40
80
80
80
ENDCHAR
STARTCHAR zero
ENCODING 48
SWIDTH 456 0
DWIDTH 5 0
BBX 5 9 0 0
BITMAP
70
58
C8
C8
C8
C8
C8
58
70
ENDCHAR
STARTCHAR one
ENCODING 49
SWIDTH 456 0
DWIDTH 5 0
BBX 5 9 0 0
BITMAP
30
F0
30
30
30
30
30
30
F8
ENDCHAR
STARTCHAR two
ENCODING 50
SWIDTH 456 0
DWIDTH 5 0
BBX 5 9 0 0
BITMAP
70
58
C8
18
18
30
60
40
F8
ENDCHAR
STARTCHAR three
ENCODING 51
SWIDTH 456 0
DWIDTH 5 0
BBX 5 9 0 0
BITMAP
70
58
D8
18
30
18
C8
D8
70
ENDCHAR
STARTCHAR four
ENCODING 52
SWIDTH 456 0
DWIDTH 5 0
BBX 5 9 0 0
BITMAP
30
28
78
78
58
D8
F8
18
18
ENDCHAR
STARTCHAR five
ENCODING 53
SWIDTH 456 0
DWIDTH 5 0
BBX 5 9 0 0
BITMAP
78
40
40
70
58
08
C8
58
70
ENDCHAR
STARTCHAR six
ENCODING 54
SWIDTH 456 0
DWIDTH 5 0
BBX 5 9 0 0
BITMAP
70
58
40
F0
D8
C8
C8
58
70
ENDCHAR
STARTCHAR seven
ENCODING 55
SWIDTH 456 0
DWIDTH 5 0
BBX 5 9 0 0
BITMAP
F8
18
10
30
20
20
60
60
60
ENDCHAR
STARTCHAR eight
ENCODING 56
SWIDTH 456 0
DWIDTH 5 0
BBX 5 9 0 0
BITMAP
70
58
58
58
70
58
C8
D8
70
ENDCHAR
STARTCHAR nine
ENCODING 57
SWIDTH 456 0
DWIDTH 5 0
BBX 5 9 0 0
BITMAP
70
58
C8
D8
78
08
48
58
70
ENDCHAR
STARTCHAR colon
ENCODING 58
SWIDTH 273 0
DWIDTH 3 0
BBX 1 7 1 0
BITMAP
80
80
00
00
00
80
80
ENDCHAR
STARTCHAR semicolon
ENCODING 59
SWIDTH 273 0
DWIDTH 3 0
BBX 1 9 1 -2
BITMAP
80
80
00
00
00
80
80
80
80
ENDCHAR
STARTCHAR less
ENCODING 60
SWIDTH 479 0
DWIDTH 6 0
BBX 5 6 0 0
BITMAP
08
30
C0
E0
38
08
ENDCHAR
STARTCHAR equal
ENCODING 61
SWIDTH 479 0
DWIDTH 6 0
BBX 5 4 0 1
BITMAP
F8
00
00
F8
ENDCHAR
STARTCHAR greater
ENCODING 62
SWIDTH 479 0
DWIDTH 6 0
BBX 5 6 0 0
BITMAP
C0
70
18
18
70
C0
ENDCHAR
STARTCHAR question
ENCODING 63
SWIDTH 501 0
DWIDTH 6 0
BBX 4 9 1 0
BITMAP
F0
90
90
30
30
60
00
60
60
ENDCHAR
STARTCHAR at
ENCODING 64
SWIDTH 800 0
DWIDTH 10 0
BBX 9 11 0 -2
BITMAP
1E00
6100
5C80
9280
8280
9E80
9280
9680
5B00
6000
3C00
ENDCHAR
STARTCHAR A
ENCODING 65
SWIDTH 592 0
DWIDTH 7 0
BBX 7 9 0 0
BITMAP
18
38
28
28
6C
6C
7C
C6
C6
ENDCHAR
STARTCHAR B
ENCODING 66
SWIDTH 592 0
DWIDTH 7 0
BBX 6 9 1 0
BITMAP
F8
88
8C
88
F0
88
8C
8C
F8
ENDCHAR
STARTCHAR C
ENCODING 67
SWIDTH 592 0
DWIDTH 7 0
BBX 7 9 0 0
BITMAP
38
64
46
C0
C0
C0
46
64
38
ENDCHAR
STARTCHAR D
ENCODING 68
SWIDTH 592 0
DWIDTH 7 0
BBX 6 9 1 0
BITMAP
F0
98
88
8C
8C
8C
88
98
F0
ENDCHAR
STARTCHAR E
ENCODING 69
SWIDTH 547 0
DWIDTH 7 0
BBX 5 9 1 0
BITMAP
F8
80
80
80
F0
80
80
80
F8
ENDCHAR
STARTCHAR F
ENCODING 70
SWIDTH 501 0
DWIDTH 6 0
BBX 5 9 1 0
BITMAP
F8
80
80
80
F0
80
80
80
80
ENDCHAR
STARTCHAR G
ENCODING 71
SWIDTH 638 0
DWIDTH 8 0
BBX 7 9 0 0
BITMAP
3C
66
46
C0
CE
C6
46
66
3A
ENDCHAR
STARTCHAR H
ENCODING 72
SWIDTH 592 0
DWIDTH 7 0
BBX 5 9 1 0
BITMAP
88
88
88
88
F8
88
88
88
88
ENDCHAR
STARTCHAR I
ENCODING 73
SWIDTH 228 0
DWIDTH 3 0
BBX 1 9 1 0
BITMAP
80
80
80
80
80
80
80
80
80
ENDCHAR
STARTCHAR J
ENCODING 74
SWIDTH 456 0
DWIDTH 5 0
BBX 5 9 0 0
BITMAP
18
18
18
18
18
18
D8
D8
70
ENDCHAR
STARTCHAR K
ENCODING 75
SWIDTH 592 0
DWIDTH 7 0
BBX 6 9 1 0
BITMAP
8C
98
90
B0
F0
D0
98
88
8C
ENDCHAR
STARTCHAR L
ENCODING 76
SWIDTH 501 0
DWIDTH 6 0
BBX 5 9 1 0
BITMAP
80
80
80
80
80
80
80
80
F8
ENDCHAR
STARTCHAR M
ENCODING 77
SWIDTH 683 0
DWIDTH 8 0
BBX 7 9 1 0
BITMAP
CE
CE
CE
EE
EE
B6
B6
B6
B6
ENDCHAR
STARTCHAR N
ENCODING 78
SWIDTH 592 0
DWIDTH 7 0
BBX 5 9 1 0
BITMAP
88
C8
C8
E8
A8
B8
98
98
88
ENDCHAR
STARTCHAR O
ENCODING 79
SWIDTH 638 0
DWIDTH 8 0
BBX 7 9 0 0
BITMAP
3C
66
46
C2
C2
C2
46
66
3C
ENDCHAR
STARTCHAR P
ENCODING 80
SWIDTH 547 0
DWIDTH 7 0
BBX 5 9 1 0
BITMAP
F0
98
88
98
F0
80
80
80
80
ENDCHAR
STARTCHAR Q
ENCODING 81
SWIDTH 638 0
DWIDTH 8 0
BBX 7 10 0 -1
BITMAP
3C
66
46
C2
C2
C2
46
66
3C
0E
ENDCHAR
STARTCHAR R
ENCODING 82
SWIDTH 592 0
DWIDTH 7 0
BBX 6 9 1 0
BITMAP
F8
8C
8C
8C
F8
98
98
88
8C
ENDCHAR
STARTCHAR S
ENCODING 83
SWIDTH 547 0
DWIDTH 7 0
BBX 6 9 0 0
BITMAP
38
4C
4C
70
7C
1C
CC
4C
78
ENDCHAR
STARTCHAR T
ENCODING 84
SWIDTH 501 0
DWIDTH 6 0
BBX 6 9 0 0
BITMAP
FC
30
30
30
30
30
30
30
30
ENDCHAR
STARTCHAR U
ENCODING 85
SWIDTH 592 0
DWIDTH 7 0
BBX 5 9 1 0
BITMAP
88
88
88
88
88
88
88
C8
70
ENDCHAR
STARTCHAR V
ENCODING 86
SWIDTH 547 0
DWIDTH 7 0
BBX 7 9 0 0
BITMAP
C6
C4
4C
6C
68
28
38
30
30
ENDCHAR
STARTCHAR W
ENCODING 87
SWIDTH 774 0
DWIDTH 9 0
BBX 9 9 0 0
BITMAP
CC80
CC80
DC80
5580
5500
7700
7700
7300
2300
ENDCHAR
STARTCHAR X
ENCODING 88
SWIDTH 547 0
DWIDTH 7 0
BBX 7 9 0 0
BITMAP
C4
6C
68
38
30
38
68
4C
C6
ENDCHAR
STARTCHAR Y
ENCODING 89
SWIDTH 547 0
DWIDTH 7 0
BBX 7 9 0 0
BITMAP
C6
4C
68
28
38
30
10
10
10
ENDCHAR
STARTCHAR Z
ENCODING 90
SWIDTH 501 0
DWIDTH 6 0
BBX 6 9 0 0
BITMAP
FC
18
18
30
30
20
60
60
FC
ENDCHAR
STARTCHAR bracketleft
ENCODING 91
SWIDTH 273 0
DWIDTH 3 0
BBX 2 11 1 -2
BITMAP
C0
80
80
80
80
80
80
80
80
80
C0
ENDCHAR
STARTCHAR backslash
ENCODING 92
SWIDTH 228 0
DWIDTH 3 0
BBX 3 10 0 -1
BITMAP
80
80
80
40
40
40
40
40
40
20
ENDCHAR
STARTCHAR bracketright
ENCODING 93
SWIDTH 273 0
DWIDTH 3 0
BBX 3 11 0 -2
BITMAP
E0
60
60
60
60
60
60
60
60
60
E0
ENDCHAR
STARTCHAR asciicircum
ENCODING 94
SWIDTH 479 0
DWIDTH 6 0
BBX 5 5 0 4
BITMAP
30
30
70
48
C8
ENDCHAR
STARTCHAR underscore
ENCODING 95
SWIDTH 456 0
DWIDTH 5 0
BBX 5 1 0 -2
BITMAP
F8
ENDCHAR
STARTCHAR grave
ENCODING 96
SWIDTH 273 0
DWIDTH 3 0
BBX 3 2 0 8
BITMAP
C0
60
ENDCHAR
STARTCHAR a
ENCODING 97
SWIDTH 456 0
DWIDTH 5 0
BBX 5 7 0 0
BITMAP
70
D8
18
78
D8
D8
78
ENDCHAR
STARTCHAR b
ENCODING 98
SWIDTH 501 0
DWIDTH 6 0
BBX 5 9 1 0
BITMAP
80
80
F0
90
90
98
90
90
F0
ENDCHAR
STARTCHAR c
ENCODING 99
SWIDTH 456 0
DWIDTH 5 0
BBX 5 7 0 0
BITMAP
70
58
48
C0
48
58
70
ENDCHAR
STARTCHAR d
ENCODING 100
SWIDTH 501 0
DWIDTH 6 0
BBX 5 9 0 0
BITMAP
08
08
78
48
48
C8
48
48
78
ENDCHAR
STARTCHAR e
ENCODING 101
SWIDTH 456 0
DWIDTH 5 0
BBX 5 7 0 0
BITMAP
70
58
C8
F8
C0
58
70
ENDCHAR
STARTCHAR f
ENCODING 102
SWIDTH 273 0
DWIDTH 3 0
BBX 3 9 0 0
BITMAP
60
40
E0
40
40
40
40
40
40
ENDCHAR
STARTCHAR g
ENCODING 103
SWIDTH 501 0
DWIDTH 6 0
BBX 6 11 0 -2
BITMAP
04
0C
78
48
48
78
40
C0
7C
CC
F8
ENDCHAR
STARTCHAR h
ENCODING 104
SWIDTH 501 0
DWIDTH 6 0
BBX 4 9 1 0
BITMAP
80
80
F0
90
90
90
90
90
90
ENDCHAR
STARTCHAR i
ENCODING 105
SWIDTH 228 0
DWIDTH 3 0
BBX 1 9 1 0
BITMAP
80
00
80
80
80
80
80
80
80
ENDCHAR
STARTCHAR j
ENCODING 106
SWIDTH 228 0
DWIDTH 3 0
BBX 2 11 0 -2
BITMAP
40
00
40
40
40
40
40
40
40
40
C0
ENDCHAR
STARTCHAR k
ENCODING 107
SWIDTH 456 0
DWIDTH 5 0
BBX 4 9 1 0
BITMAP
80
80
90
A0
E0
E0
A0
B0
90
ENDCHAR
STARTCHAR l
ENCODING 108
SWIDTH 228 0
DWIDTH 3 0
BBX 1 9 1 0
BITMAP
80
80
80
80
80
80
80
80
80
ENDCHAR
STARTCHAR m
ENCODING 109
SWIDTH 729 0
DWIDTH 9 0
BBX 7 7 1 0
BITMAP
FE
92
92
92
92
92
92
ENDCHAR
STARTCHAR n
ENCODING 110
SWIDTH 501 0
DWIDTH 6 0
BBX 4 7 1 0
BITMAP
F0
90
90
90
90
90
90
ENDCHAR
STARTCHAR o
ENCODING 111
SWIDTH 501 0
DWIDTH 6 0
BBX 6 7 0 0
BITMAP
78
48
48
CC
48
48
78
ENDCHAR
STARTCHAR p
ENCODING 112
SWIDTH 501 0
DWIDTH 6 0
BBX 5 9 1 -2
BITMAP
F0
90
90
98
90
90
F0
80
80
ENDCHAR
STARTCHAR q
ENCODING 113
SWIDTH 501 0
DWIDTH 6 0
BBX 5 9 0 -2
BITMAP
78
48
48
C8
48
48
78
08
08
ENDCHAR
STARTCHAR r
ENCODING 114
SWIDTH 319 0
DWIDTH 4 0
BBX 3 7 1 0
BITMAP
E0
80
80
80
80
80
80
ENDCHAR
STARTCHAR s
ENCODING 115
SWIDTH 456 0
DWIDTH 5 0
BBX 5 7 0 0
BITMAP
70
58
E0
78
18
C8
70
ENDCHAR
STARTCHAR t
ENCODING 116
SWIDTH 273 0
DWIDTH 3 0
BBX 3 9 0 0
BITMAP
40
40
E0
40
40
40
40
40
60
ENDCHAR
STARTCHAR u
ENCODING 117
SWIDTH 501 0
DWIDTH 6 0
BBX 4 7 1 0
BITMAP
90
90
90
90
90
90
F0
ENDCHAR
STARTCHAR v
ENCODING 118
SWIDTH 456 0
DWIDTH 5 0
BBX 5 7 0 0
BITMAP
C8
C8
58
50
70
30
30
ENDCHAR
STARTCHAR w
ENCODING 119
SWIDTH 638 0
DWIDTH 8 0
BBX 8 7 0 0
BITMAP
DB
DA
5A
5A
6A
6C
64
ENDCHAR
STARTCHAR x
ENCODING 120
SWIDTH 456 0
DWIDTH 5 0
BBX 5 7 0 0
BITMAP
C8
78
70
30
70
58
C8
ENDCHAR
STARTCHAR y
ENCODING 121
SWIDTH 456 0
DWIDTH 5 0
BBX 5 9 0 -2
BITMAP
C8
C8
58
70
70
30
30
20
60
ENDCHAR
STARTCHAR z
ENCODING 122
SWIDTH 410 0
DWIDTH 5 0
BBX 5 7 0 0
BITMAP
F8
30
30
20
60
40
F8
ENDCHAR
STARTCHAR braceleft
ENCODING 123
SWIDTH 319 0
DWIDTH 4 0
BBX 4 11 0 -2
BITMAP
30
60
60
60
40
80
60
60
60
60
30
ENDCHAR
STARTCHAR bar
ENCODING 124
SWIDTH 230 0
DWIDTH 3 0
BBX 1 11 1 -2
BITMAP
80
80
80
80
80
80
80
80
80
80
80
ENDCHAR
STARTCHAR braceright
ENCODING 125
SWIDTH 319 0
DWIDTH 4 0
BBX 4 11 0 -2
BITMAP
C0
60
60
60
60
10
60
60
60
60
C0
ENDCHAR
STARTCHAR asciitilde
ENCODING 126
SWIDTH 479 0
DWIDTH 6 0
BBX 5 3 0 3
BITMAP
68
F8
98
ENDCHAR
STARTCHAR uni00A0
ENCODING 160
SWIDTH 228 0
DWIDTH 3 0
BBX 1 1 0 0
BITMAP
00
ENDCHAR
STARTCHAR exclamdown
ENCODING 161
SWIDTH 273 0
DWIDTH 3 0
BBX 2 9 1 -2
BITMAP
80
80
00
80
80
80
80
80
C0
ENDCHAR
STARTCHAR cent
ENCODING 162
SWIDTH 456 0
DWIDTH 5 0
BBX 5 10 0 -1
BITMAP
20
30
78
68
E0
E0
68
78
20
20
ENDCHAR
STARTCHAR sterling
ENCODING 163
SWIDTH 456 0
DWIDTH 5 0
BBX 5 9 0 0
BITMAP
38
48
48
40
F0
40
40
40
F8
ENDCHAR
STARTCHAR currency
ENCODING 164
SWIDTH 456 0
DWIDTH 5 0
BBX 5 6 0 1
BITMAP
F8
48
88
88
48
F8
ENDCHAR
STARTCHAR yen
ENCODING 165
SWIDTH 456 0
DWIDTH 5 0
BBX 5 9 0 0
BITMAP
C8
58
50
70
F8
20
F8
20
20
ENDCHAR
STARTCHAR brokenbar
ENCODING 166
SWIDTH 230 0
DWIDTH 3 0
BBX 1 11 1 -2
BITMAP
80
80
80
80
80
00
80
80
80
80
80
ENDCHAR
STARTCHAR section
ENCODING 167
SWIDTH 456 0
DWIDTH 5 0
BBX 5 11 0 -2
BITMAP
70
58
40
70
58
C8
68
30
18
48
70
ENDCHAR
STARTCHAR dieresis
ENCODING 168
SWIDTH 273 0
DWIDTH 3 0
BBX 3 1 0 8
BITMAP
A0
ENDCHAR
STARTCHAR copyright
ENCODING 169
SWIDTH 604 0
DWIDTH 7 0
BBX 7 9 0 0
BITMAP
38
44
BA
AA
A2
AA
BA
44
38
ENDCHAR
STARTCHAR ordfeminine
ENCODING 170
SWIDTH 303 0
DWIDTH 4 0
BBX 4 5 0 4
BITMAP
60
A0
60
A0
F0
ENDCHAR
STARTCHAR guillemotleft
ENCODING 171
SWIDTH 456 0
DWIDTH 5 0
BBX 5 5 0 2
BITMAP
28
50
F0
50
28
ENDCHAR
STARTCHAR logicalnot
ENCODING 172
SWIDTH 479 0
DWIDTH 6 0
BBX 5 3 0 3
BITMAP
F8
08
08
ENDCHAR
STARTCHAR uni00AD
ENCODING 173
SWIDTH 273 0
DWIDTH 3 0
BBX 3 1 0 3
BITMAP
E0
ENDCHAR
STARTCHAR registered
ENCODING 174
SWIDTH 604 0
DWIDTH 7 0
BBX 7 9 0 0
BITMAP
38
44
BA
AA
BA
AA
AE
44
38
ENDCHAR
STARTCHAR macron
ENCODING 175
SWIDTH 273 0
DWIDTH 3 0
BBX 3 1 0 8
BITMAP
E0
ENDCHAR
STARTCHAR degree
ENCODING 176
SWIDTH 400 0
DWIDTH 5 0
BBX 3 4 1 5
BITMAP
E0
A0
A0
E0
ENDCHAR
STARTCHAR plusminus
ENCODING 177
SWIDTH 549 0
DWIDTH 7 0
BBX 5 8 1 0
BITMAP
20
20
20
F8
20
20
00
F8
ENDCHAR
STARTCHAR uni00B2
ENCODING 178
SWIDTH 273 0
DWIDTH 3 0
BBX 3 4 0 5
BITMAP
60
A0
40
E0
ENDCHAR
STARTCHAR uni00B3
ENCODING 179
SWIDTH 273 0
DWIDTH 3 0
BBX 3 4 0 5
BITMAP
E0
40
A0
60
ENDCHAR
STARTCHAR acute
ENCODING 180
SWIDTH 273 0
DWIDTH 3 0
BBX 2 2 1 8
BITMAP
C0
80
ENDCHAR
STARTCHAR uni00B5
ENCODING 181
SWIDTH 501 0
DWIDTH 6 0
BBX 4 9 1 -2
BITMAP
90
90
90
90
90
90
F0
80
80
ENDCHAR
STARTCHAR paragraph
ENCODING 182
SWIDTH 456 0
DWIDTH 5 0
BBX 5 11 0 -2
BITMAP
78
E8
E8
E8
68
28
28
28
28
28
28
ENDCHAR
STARTCHAR periodcentered
ENCODING 183
SWIDTH 228 0
DWIDTH 3 0
BBX 1 1 1 4
BITMAP
80
ENDCHAR
STARTCHAR cedilla
ENCODING 184
SWIDTH 273 0
DWIDTH 3 0
BBX 3 2 0 -2
BITMAP
60
E0
ENDCHAR
STARTCHAR uni00B9
ENCODING 185
SWIDTH 273 0
DWIDTH 3 0
BBX 3 4 0 5
BITMAP
C0
40
40
E0
ENDCHAR
STARTCHAR ordmasculine
ENCODING 186
SWIDTH 299 0
DWIDTH 4 0
BBX 4 5 0 4
BITMAP
60
A0
B0
A0
60
ENDCHAR
STARTCHAR guillemotright
ENCODING 187
SWIDTH 456 0
DWIDTH 5 0
BBX 5 5 0 2
BITMAP
D0
58
28
58
D0
ENDCHAR
STARTCHAR onequarter
ENCODING 188
SWIDTH 683 0
DWIDTH 8 0
BBX 8 9 0 0
BITMAP
C2
44
44
48
E8
13
15
27
61
ENDCHAR
STARTCHAR onehalf
ENCODING 189
SWIDTH 683 0
DWIDTH 8 0
BBX 8 9 0 0
BITMAP
C2
44
44
48
EB
15
12
22
67
ENDCHAR
STARTCHAR threequarters
ENCODING 190
SWIDTH 683 0
DWIDTH 8 0
BBX 8 9 0 0
BITMAP
62
A4
44
A8
6A
13
15
27
61
ENDCHAR
STARTCHAR questiondown
ENCODING 191
SWIDTH 501 0
DWIDTH 6 0
BBX 4 9 1 -2
BITMAP
60
60
00
60
C0
C0
90
90
F0
ENDCHAR
STARTCHAR Agrave
ENCODING 192
SWIDTH 592 0
DWIDTH 7 0
BBX 7 11 0 0
BITMAP
30
00
18
38
28
28
6C
6C
7C
C6
C6
ENDCHAR
STARTCHAR Aacute
ENCODING 193
SWIDTH 592 0
DWIDTH 7 0
BBX 7 11 0 0
BITMAP
18
00
18
38
28
28
6C
6C
7C
C6
C6
ENDCHAR
STARTCHAR Acircumflex
ENCODING 194
SWIDTH 592 0
DWIDTH 7 0
BBX 7 11 0 0
BITMAP
38
00
18
38
28
28
6C
6C
7C
C6
C6
ENDCHAR
STARTCHAR Atilde
ENCODING 195
SWIDTH 592 0
DWIDTH 7 0
BBX 7 11 0 0
BITMAP
38
00
18
38
28
28
6C
6C
7C
C6
C6
ENDCHAR
STARTCHAR Adieresis
ENCODING 196
SWIDTH 592 0
DWIDTH 7 0
BBX 7 11 0 0
BITMAP
28
00
18
38
28
28
6C
6C
7C
C6
C6
ENDCHAR
STARTCHAR Aring
ENCODING 197
SWIDTH 592 0
DWIDTH 7 0
BBX 7 12 0 0
BITMAP
10
28
10
18
38
28
28
6C
6C
7C
C6
C6
ENDCHAR
STARTCHAR AE
ENCODING 198
SWIDTH 820 0
DWIDTH 10 0
BBX 9 9 0 0
BITMAP
1F80
1800
2800
2C00
6F80
6400
7C00
C600
8780
ENDCHAR
STARTCHAR Ccedilla
ENCODING 199
SWIDTH 592 0
DWIDTH 7 0
BBX 7 11 0 -2
BITMAP
38
64
46
C0
C0
C0
46
64
38
18
18
ENDCHAR
STARTCHAR Egrave
ENCODING 200
SWIDTH 547 0
DWIDTH 7 0
BBX 5 11 1 0
BITMAP
60
00
F8
80
80
80
F0
80
80
80
F8
ENDCHAR
STARTCHAR Eacute
ENCODING 201
SWIDTH 547 0
DWIDTH 7 0
BBX 5 11 1 0
BITMAP
70
00
F8
80
80
80
F0
80
80
80
F8
ENDCHAR
STARTCHAR Ecircumflex
ENCODING 202
SWIDTH 547 0
DWIDTH 7 0
BBX 5 11 1 0
BITMAP
70
00
F8
80
80
80
F0
80
80
80
F8
ENDCHAR
STARTCHAR Edieresis
ENCODING 203
SWIDTH 547 0
DWIDTH 7 0
BBX 5 11 1 0
BITMAP
50
00
F8
80
80
80
F0
80
80
80
F8
ENDCHAR
STARTCHAR Igrave
ENCODING 204
SWIDTH 228 0
DWIDTH 3 0
BBX 2 11 0 0
BITMAP
C0
00
40
40
40
40
40
40
40
40
40
ENDCHAR
STARTCHAR Iacute
ENCODING 205
SWIDTH 228 0
DWIDTH 3 0
BBX 3 11 0 0
BITMAP
E0
00
40
40
40
40
40
40
40
40
40
ENDCHAR
STARTCHAR Icircumflex
ENCODING 206
SWIDTH 228 0
DWIDTH 3 0
BBX 3 11 0 0
BITMAP
E0
00
40
40
40
40
40
40
40
40
40
ENDCHAR
STARTCHAR Idieresis
ENCODING 207
SWIDTH 228 0
DWIDTH 3 0
BBX 3 11 0 0
BITMAP
A0
00
40
40
40
40
40
40
40
40
40
ENDCHAR
STARTCHAR Eth
ENCODING 208
SWIDTH 592 0
DWIDTH 7 0
BBX 7 9 0 0
BITMAP
78
4C
44
46
F6
46
44
4C
78
ENDCHAR
STARTCHAR Ntilde
ENCODING 209
SWIDTH 592 0
DWIDTH 7 0
BBX 5 11 1 0
BITMAP
70
00
88
C8
C8
E8
A8
B8
98
98
88
ENDCHAR
STARTCHAR Ograve
ENCODING 210
SWIDTH 638 0
DWIDTH 8 0
BBX 7 11 0 0
BITMAP
38
00
3C
66
46
C2
C2
C2
46
66
3C
ENDCHAR
STARTCHAR Oacute
ENCODING 211
SWIDTH 638 0
DWIDTH 8 0
BBX 7 11 0 0
BITMAP
18
00
3C
66
46
C2
C2
C2
46
66
3C
ENDCHAR
STARTCHAR Ocircumflex
ENCODING 212
SWIDTH 638 0
DWIDTH 8 0
BBX 7 11 0 0
BITMAP
38
00
3C
66
46
C2
C2
C2
46
66
3C
ENDCHAR
STARTCHAR Otilde
ENCODING 213
SWIDTH 638 0
DWIDTH 8 0
BBX 7 11 0 0
BITMAP
3C
00
3C
66
46
C2
C2
C2
46
66
3C
ENDCHAR
STARTCHAR Odieresis
ENCODING 214
SWIDTH 638 0
DWIDTH 8 0
BBX 7 11 0 0
BITMAP
28
00
3C
66
46
C2
C2
C2
46
66
3C
ENDCHAR
STARTCHAR multiply
ENCODING 215
SWIDTH 479 0
DWIDTH 6 0
BBX 6 6 0 0
BITMAP
48
CC
30
30
CC
48
ENDCHAR
STARTCHAR Oslash
ENCODING 216
SWIDTH 638 0
DWIDTH 8 0
BBX 7 9 0 0
BITMAP
3E
66
4E
CA
D2
D2
66
66
FC
ENDCHAR
STARTCHAR Ugrave
ENCODING 217
SWIDTH 592 0
DWIDTH 7 0
BBX 5 11 1 0
BITMAP
60
00
88
88
88
88
88
88
88
C8
70
ENDCHAR
STARTCHAR Uacute
ENCODING 218
SWIDTH 592 0
DWIDTH 7 0
BBX 5 11 1 0
BITMAP
30
00
88
88
88
88
88
88
88
C8
70
ENDCHAR
STARTCHAR Ucircumflex
ENCODING 219
SWIDTH 592 0
DWIDTH 7 0
BBX 5 11 1 0
BITMAP
70
00
88
88
88
88
88
88
88
C8
70
ENDCHAR
STARTCHAR Udieresis
ENCODING 220
SWIDTH 592 0
DWIDTH 7 0
BBX 5 11 1 0
BITMAP
50
00
88
88
88
88
88
88
88
C8
70
ENDCHAR
STARTCHAR Yacute
ENCODING 221
SWIDTH 547 0
DWIDTH 7 0
BBX 7 11 0 0
BITMAP
38
00
C6
4C
68
28
38
30
10
10
10
ENDCHAR
STARTCHAR Thorn
ENCODING 222
SWIDTH 547 0
DWIDTH 7 0
BBX 5 9 1 0
BITMAP
80
80
F0
98
88
98
F0
80
80
ENDCHAR
STARTCHAR germandbls
ENCODING 223
SWIDTH 501 0
DWIDTH 6 0
BBX 6 9 0 0
BITMAP
78
48
C8
C8
F0
C8
CC
C8
F8
ENDCHAR
STARTCHAR agrave
ENCODING 224
SWIDTH 456 0
DWIDTH 5 0
BBX 5 9 0 0
BITMAP
60
00
70
D8
18
78
D8
D8
78
ENDCHAR
STARTCHAR aacute
ENCODING 225
SWIDTH 456 0
DWIDTH 5 0
BBX 5 9 0 0
BITMAP
30
00
70
D8
18
78
D8
D8
78
ENDCHAR
STARTCHAR acircumflex
ENCODING 226
SWIDTH 456 0
DWIDTH 5 0
BBX 5 9 0 0
BITMAP
20
50
70
D8
18
78
D8
D8
78
ENDCHAR
STARTCHAR atilde
ENCODING 227
SWIDTH 456 0
DWIDTH 5 0
BBX 5 9 0 0
BITMAP
78
00
70
D8
18
78
D8
D8
78
ENDCHAR
STARTCHAR adieresis
ENCODING 228
SWIDTH 456 0
DWIDTH 5 0
BBX 5 9 0 0
BITMAP
50
00
70
D8
18
78
D8
D8
78
ENDCHAR
STARTCHAR aring
ENCODING 229
SWIDTH 456 0
DWIDTH 5 0
BBX 5 9 0 0
BITMAP
30
70
70
D8
18
78
D8
D8
78
ENDCHAR
STARTCHAR ae
ENCODING 230
SWIDTH 729 0
DWIDTH 9 0
BBX 8 7 0 0
BITMAP
76
49
09
7F
48
D9
7F
ENDCHAR
STARTCHAR ccedilla
ENCODING 231
SWIDTH 456 0
DWIDTH 5 0
BBX 5 9 0 -2
BITMAP
70
58
48
C0
48
58
70
30
30
ENDCHAR
STARTCHAR egrave
ENCODING 232
SWIDTH 456 0
DWIDTH 5 0
BBX 5 9 0 0
BITMAP
70
00
70
58
C8
F8
C0
58
70
ENDCHAR
STARTCHAR eacute
ENCODING 233
SWIDTH 456 0
DWIDTH 5 0
BBX 5 9 0 0
BITMAP
30
00
70
58
C8
F8
C0
58
70
ENDCHAR
STARTCHAR ecircumflex
ENCODING 234
SWIDTH 456 0
DWIDTH 5 0
BBX 5 9 0 0
BITMAP
30
50
70
58
C8
F8
C0
58
70
ENDCHAR
STARTCHAR edieresis
ENCODING 235
SWIDTH 456 0
DWIDTH 5 0
BBX 5 9 0 0
BITMAP
50
00
70
58
C8
F8
C0
58
70
ENDCHAR
STARTCHAR igrave
ENCODING 236
SWIDTH 228 0
DWIDTH 3 0
BBX 2 9 0 0
BITMAP
C0
00
40
40
40
40
40
40
40
ENDCHAR
STARTCHAR iacute
ENCODING 237
SWIDTH 228 0
DWIDTH 3 0
BBX 2 9 1 0
BITMAP
C0
00
80
80
80
80
80
80
80
ENDCHAR
STARTCHAR icircumflex
ENCODING 238
SWIDTH 228 0
DWIDTH 3 0
BBX 3 9 0 0
BITMAP
40
A0
40
40
40
40
40
40
40
ENDCHAR
STARTCHAR idieresis
ENCODING 239
SWIDTH 228 0
DWIDTH 3 0
BBX 3 9 0 0
BITMAP
A0
00
40
40
40
40
40
40
40
ENDCHAR
STARTCHAR eth
ENCODING 240
SWIDTH 501 0
DWIDTH 6 0
BBX 6 9 0 0
BITMAP
38
58
78
48
48
CC
48
48
78
ENDCHAR
STARTCHAR ntilde
ENCODING 241
SWIDTH 501 0
DWIDTH 6 0
BBX 4 9 1 0
BITMAP
F0
00
F0
90
90
90
90
90
90
ENDCHAR
STARTCHAR ograve
ENCODING 242
SWIDTH 501 0
DWIDTH 6 0
BBX 6 9 0 0
BITMAP
70
00
78
48
48
CC
48
48
78
ENDCHAR
STARTCHAR oacute
ENCODING 243
SWIDTH 501 0
DWIDTH 6 0
BBX 6 9 0 0
BITMAP
38
00
78
48
48
CC
48
48
78
ENDCHAR
STARTCHAR ocircumflex
ENCODING 244
SWIDTH 501 0
DWIDTH 6 0
BBX 6 9 0 0
BITMAP
30
30
78
48
48
CC
48
48
78
ENDCHAR
STARTCHAR otilde
ENCODING 245
SWIDTH 501 0
DWIDTH 6 0
BBX 6 9 0 0
BITMAP
78
00
78
48
48
CC
48
48
78
ENDCHAR
STARTCHAR odieresis
ENCODING 246
SWIDTH 501 0
DWIDTH 6 0
BBX 6 9 0 0
BITMAP
78
00
78
48
48
CC
48
48
78
ENDCHAR
STARTCHAR divide
ENCODING 247
SWIDTH 549 0
DWIDTH 7 0
BBX 6 5 0 1
BITMAP
10
00
FC
00
10
ENDCHAR
STARTCHAR oslash
ENCODING 248
SWIDTH 501 0
DWIDTH 6 0
BBX 6 8 0 0
BITMAP
08
78
58
58
DC
68
68
78
ENDCHAR
STARTCHAR ugrave
ENCODING 249
SWIDTH 501 0
DWIDTH 6 0
BBX 4 9 1 0
BITMAP
E0
00
90
90
90
90
90
90
F0
ENDCHAR
STARTCHAR uacute
ENCODING 250
SWIDTH 501 0
DWIDTH 6 0
BBX 4 9 1 0
BITMAP
70
00
90
90
90
90
90
90
F0
ENDCHAR
STARTCHAR ucircumflex
ENCODING 251
SWIDTH 501 0
DWIDTH 6 0
BBX 4 9 1 0
BITMAP
60
60
90
90
90
90
90
90
F0
ENDCHAR
STARTCHAR udieresis
ENCODING 252
SWIDTH 501 0
DWIDTH 6 0
BBX 4 9 1 0
BITMAP
F0
00
90
90
90
90
90
90
F0
ENDCHAR
STARTCHAR yacute
ENCODING 253
SWIDTH 456 0
DWIDTH 5 0
BBX 5 11 0 -2
BITMAP
30
00
C8
C8
58
70
70
30
30
20
60
ENDCHAR
STARTCHAR thorn
ENCODING 254
SWIDTH 501 0
DWIDTH 6 0
BBX 5 11 1 -2
BITMAP
80
80
F0
90
90
98
90
90
F0
80
80
ENDCHAR
STARTCHAR ydieresis
ENCODING 255
SWIDTH 456 0
DWIDTH 5 0
BBX 5 11 0 -2
BITMAP
50
00
C8
C8
58
70
70
30
30
20
60
ENDCHAR
STARTCHAR Amacron
ENCODING 256
SWIDTH 592 0
DWIDTH 7 0
BBX 7 11 0 0
BITMAP
38
00
18
38
28
28
6C
6C
7C
C6
C6
ENDCHAR
STARTCHAR amacron
ENCODING 257
SWIDTH 456 0
DWIDTH 5 0
BBX 5 9 0 0
BITMAP
70
00
70
D8
18
78
D8
D8
78
ENDCHAR
STARTCHAR Abreve
ENCODING 258
SWIDTH 592 0
DWIDTH 7 0
BBX 7 11 0 0
BITMAP
38
00
18
38
28
28
6C
6C
7C
C6
C6
ENDCHAR
STARTCHAR abreve
ENCODING 259
SWIDTH 456 0
DWIDTH 5 0
BBX 5 9 0 0
BITMAP
70
00
70
D8
18
78
D8
D8
78
ENDCHAR
STARTCHAR Aogonek
ENCODING 260
SWIDTH 592 0
DWIDTH 7 0
BBX 7 11 0 -2
BITMAP
18
38
28
28
6C
6C
7C
C6
C6
02
06
ENDCHAR
STARTCHAR aogonek
ENCODING 261
SWIDTH 456 0
DWIDTH 5 0
BBX 6 9 0 -2
BITMAP
70
D8
78
D8
D8
D8
78
08
0C
ENDCHAR
STARTCHAR Cacute
ENCODING 262
SWIDTH 592 0
DWIDTH 7 0
BBX 7 11 0 0
BITMAP
18
00
38
64
46
C0
C0
C0
46
64
38
ENDCHAR
STARTCHAR cacute
ENCODING 263
SWIDTH 456 0
DWIDTH 5 0
BBX 5 9 0 0
BITMAP
38
00
70
58
48
C0
48
58
70
ENDCHAR
STARTCHAR Ccircumflex
ENCODING 264
SWIDTH 592 0
DWIDTH 7 0
BBX 7 11 0 0
BITMAP
38
00
38
64
46
C0
C0
C0
46
64
38
ENDCHAR
STARTCHAR ccircumflex
ENCODING 265
SWIDTH 456 0
DWIDTH 5 0
BBX 5 9 0 0
BITMAP
30
70
70
58
48
C0
48
58
70
ENDCHAR
STARTCHAR Cdotaccent
ENCODING 266
SWIDTH 592 0
DWIDTH 7 0
BBX 7 11 0 0
BITMAP
10
00
38
64
46
C0
C0
C0
46
64
38
ENDCHAR
STARTCHAR cdotaccent
ENCODING 267
SWIDTH 456 0
DWIDTH 5 0
BBX 5 9 0 0
BITMAP
30
00
70
58
48
C0
48
58
70
ENDCHAR
STARTCHAR Ccaron
ENCODING 268
SWIDTH 592 0
DWIDTH 7 0
BBX 7 11 0 0
BITMAP
38
00
38
64
46
C0
C0
C0
46
64
38
ENDCHAR
STARTCHAR ccaron
ENCODING 269
SWIDTH 456 0
DWIDTH 5 0
BBX 5 9 0 0
BITMAP
70
30
70
58
48
C0
48
58
70
ENDCHAR
STARTCHAR Dcaron
ENCODING 270
SWIDTH 592 0
DWIDTH 7 0
BBX 6 11 1 0
BITMAP
70
00
F0
98
88
8C
8C
8C
88
98
F0
ENDCHAR
STARTCHAR dcaron
ENCODING 271
SWIDTH 501 0
DWIDTH 6 0
BBX 7 9 0 0
BITMAP
0A
0A
78
48
48
C8
48
48
78
ENDCHAR
STARTCHAR Dcroat
ENCODING 272
SWIDTH 592 0
DWIDTH 7 0
BBX 7 9 0 0
BITMAP
78
4C
44
46
F6
46
44
4C
78
ENDCHAR
STARTCHAR dcroat
ENCODING 273
SWIDTH 501 0
DWIDTH 6 0
BBX 6 9 0 0
BITMAP
3C
08
78
48
48
C8
48
48
78
ENDCHAR
STARTCHAR Emacron
ENCODING 274
SWIDTH 547 0
DWIDTH 7 0
BBX 5 11 1 0
BITMAP
70
00
F8
80
80
80
F0
80
80
80
F8
ENDCHAR
STARTCHAR emacron
ENCODING 275
SWIDTH 456 0
DWIDTH 5 0
BBX 5 9 0 0
BITMAP
70
00
70
58
C8
F8
C0
58
70
ENDCHAR
STARTCHAR Ebreve
ENCODING 276
SWIDTH 547 0
DWIDTH 7 0
BBX 5 11 1 0
BITMAP
70
00
F8
80
80
80
F0
80
80
80
F8
ENDCHAR
STARTCHAR ebreve
ENCODING 277
SWIDTH 456 0
DWIDTH 5 0
BBX 5 9 0 0
BITMAP
70
00
70
58
C8
F8
C0
58
70
ENDCHAR
STARTCHAR Edotaccent
ENCODING 278
SWIDTH 547 0
DWIDTH 7 0
BBX 5 11 1 0
BITMAP
20
00
F8
80
80
80
F0
80
80
80
F8
ENDCHAR
STARTCHAR edotaccent
ENCODING 279
SWIDTH 456 0
DWIDTH 5 0
BBX 5 9 0 0
BITMAP
20
00
70
58
C8
F8
C0
58
70
ENDCHAR
STARTCHAR Eogonek
ENCODING 280
SWIDTH 547 0
DWIDTH 7 0
BBX 5 11 1 -2
BITMAP
F8
80
80
80
F0
80
80
80
F8
10
18
ENDCHAR
STARTCHAR eogonek
ENCODING 281
SWIDTH 456 0
DWIDTH 5 0
BBX 5 9 0 -2
BITMAP
70
58
C8
F8
C0
58
70
30
30
ENDCHAR
STARTCHAR Ecaron
ENCODING 282
SWIDTH 547 0
DWIDTH 7 0
BBX 5 11 1 0
BITMAP
70
00
F8
80
80
80
F0
80
80
80
F8
ENDCHAR
STARTCHAR ecaron
ENCODING 283
SWIDTH 456 0
DWIDTH 5 0
BBX 5 9 0 0
BITMAP
50
30
70
58
C8
F8
C0
58
70
ENDCHAR
STARTCHAR Gcircumflex
ENCODING 284
SWIDTH 638 0
DWIDTH 8 0
BBX 7 11 0 0
BITMAP
38
00
3C
66
46
C0
CE
C6
46
66
3A
ENDCHAR
STARTCHAR gcircumflex
ENCODING 285
SWIDTH 501 0
DWIDTH 6 0
BBX 6 11 0 -2
BITMAP
30
34
78
48
48
78
40
C0
7C
CC
F8
ENDCHAR
STARTCHAR Gbreve
ENCODING 286
SWIDTH 638 0
DWIDTH 8 0
BBX 7 11 0 0
BITMAP
38
00
3C
66
46
C0
CE
C6
46
66
3A
ENDCHAR
STARTCHAR gbreve
ENCODING 287
SWIDTH 501 0
DWIDTH 6 0
BBX 6 11 0 -2
BITMAP
7C
0C
78
48
48
78
40
C0
7C
CC
F8
ENDCHAR
STARTCHAR Gdotaccent
ENCODING 288
SWIDTH 638 0
DWIDTH 8 0
BBX 7 11 0 0
BITMAP
18
00
3C
66
46
C0
CE
C6
46
66
3A
ENDCHAR
STARTCHAR gdotaccent
ENCODING 289
SWIDTH 501 0
DWIDTH 6 0
BBX 6 11 0 -2
BITMAP
30
04
78
48
48
78
40
C0
7C
CC
F8
ENDCHAR
STARTCHAR uni0122
ENCODING 290
SWIDTH 638 0
DWIDTH 8 0
BBX 7 12 0 -3
BITMAP
3C
66
46
C0
CE
C6
46
66
3A
00
10
10
ENDCHAR
STARTCHAR uni0123
ENCODING 291
SWIDTH 501 0
DWIDTH 6 0
BBX 6 12 0 -2
BITMAP
10
30
04
78
48
48
78
40
C0
7C
CC
F8
ENDCHAR
STARTCHAR Hcircumflex
ENCODING 292
SWIDTH 592 0
DWIDTH 7 0
BBX 5 11 1 0
BITMAP
70
00
88
88
88
88
F8
88
88
88
88
ENDCHAR
STARTCHAR hcircumflex
ENCODING 293
SWIDTH 501 0
DWIDTH 6 0
BBX 5 11 0 0
BITMAP
E0
00
40
40
78
48
48
48
48
48
48
ENDCHAR
STARTCHAR Hbar
ENCODING 294
SWIDTH 592 0
DWIDTH 7 0
BBX 7 9 0 0
BITMAP
44
FE
44
44
7C
44
44
44
44
ENDCHAR
STARTCHAR hbar
ENCODING 295
SWIDTH 501 0
DWIDTH 6 0
BBX 5 9 0 0
BITMAP
F0
40
78
48
48
48
48
48
48
ENDCHAR
STARTCHAR Itilde
ENCODING 296
SWIDTH 228 0
DWIDTH 3 0
BBX 3 11 0 0
BITMAP
E0
00
40
40
40
40
40
40
40
40
40
ENDCHAR
STARTCHAR itilde
ENCODING 297
SWIDTH 228 0
DWIDTH 3 0
BBX 4 9 -1 0
BITMAP
F0
00
20
20
20
20
20
20
20
ENDCHAR
STARTCHAR Imacron
ENCODING 298
SWIDTH 228 0
DWIDTH 3 0
BBX 3 11 0 0
BITMAP
E0
00
40
40
40
40
40
40
40
40
40
ENDCHAR
STARTCHAR imacron
ENCODING 299
SWIDTH 228 0
DWIDTH 3 0
BBX 3 9 0 0
BITMAP
E0
00
40
40
40
40
40
40
40
ENDCHAR
STARTCHAR Ibreve
ENCODING 300
SWIDTH 228 0
DWIDTH 3 0
BBX 3 11 0 0
BITMAP
E0
00
40
40
40
40
40
40
40
40
40
ENDCHAR
STARTCHAR ibreve
ENCODING 301
SWIDTH 228 0
DWIDTH 3 0
BBX 3 9 0 0
BITMAP
A0
C0
40
40
40
40
40
40
40
ENDCHAR
STARTCHAR Iogonek
ENCODING 302
SWIDTH 228 0
DWIDTH 3 0
BBX 2 11 0 -2
BITMAP
40
40
40
40
40
40
40
40
40
80
C0
ENDCHAR
STARTCHAR iogonek
ENCODING 303
SWIDTH 228 0
DWIDTH 3 0
BBX 2 11 0 -2
BITMAP
40
00
40
40
40
40
40
40
40
40
C0
ENDCHAR
STARTCHAR Idotaccent
ENCODING 304
SWIDTH 228 0
DWIDTH 3 0
BBX 1 11 1 0
BITMAP
80
00
80
80
80
80
80
80
80
80
80
ENDCHAR
STARTCHAR dotlessi
ENCODING 305
SWIDTH 228 0
DWIDTH 3 0
BBX 1 7 1 0
BITMAP
80
80
80
80
80
80
80
ENDCHAR
STARTCHAR IJ
ENCODING 306
SWIDTH 684 0
DWIDTH 8 0
BBX 6 9 1 0
BITMAP
84
84
84
84
84
84
A4
A4
BC
ENDCHAR
STARTCHAR ij
ENCODING 307
SWIDTH 456 0
DWIDTH 5 0
BBX 4 11 1 -2
BITMAP
B0
00
B0
B0
B0
B0
B0
B0
B0
30
60
ENDCHAR
STARTCHAR Jcircumflex
ENCODING 308
SWIDTH 456 0
DWIDTH 5 0
BBX 6 11 0 0
BITMAP
3C
00
18
18
18
18
18
18
D8
D8
70
ENDCHAR
STARTCHAR jcircumflex
ENCODING 309
SWIDTH 228 0
DWIDTH 3 0
BBX 3 11 0 -2
BITMAP
40
A0
40
40
40
40
40
40
40
40
C0
ENDCHAR
STARTCHAR uni0136
ENCODING 310
SWIDTH 592 0
DWIDTH 7 0
BBX 6 12 1 -3
BITMAP
8C
98
90
B0
F0
D0
98
88
8C
00
20
20
ENDCHAR
STARTCHAR uni0137
ENCODING 311
SWIDTH 456 0
DWIDTH 5 0
BBX 4 12 1 -3
BITMAP
80
80
90
A0
E0
E0
A0
B0
90
00
40
40
ENDCHAR
STARTCHAR kgreenlandic
ENCODING 312
SWIDTH 457 0
DWIDTH 5 0
BBX 4 7 1 0
BITMAP
90
A0
E0
E0
A0
B0
90
ENDCHAR
STARTCHAR Lacute
ENCODING 313
SWIDTH 501 0
DWIDTH 6 0
BBX 5 11 1 0
BITMAP
C0
00
80
80
80
80
80
80
80
80
F8
ENDCHAR
STARTCHAR lacute
ENCODING 314
SWIDTH 228 0
DWIDTH 3 0
BBX 3 11 0 0
BITMAP
E0
00
40
40
40
40
40
40
40
40
40
ENDCHAR
STARTCHAR uni013B
ENCODING 315
SWIDTH 501 0
DWIDTH 6 0
BBX 5 12 1 -3
BITMAP
80
80
80
80
80
80
80
80
F8
00
60
60
ENDCHAR
STARTCHAR uni013C
ENCODING 316
SWIDTH 228 0
DWIDTH 3 0
BBX 1 12 1 -3
BITMAP
80
80
80
80
80
80
80
80
80
00
80
80
ENDCHAR
STARTCHAR Lcaron
ENCODING 317
SWIDTH 501 0
DWIDTH 6 0
BBX 5 9 1 0
BITMAP
90
B0
80
80
80
80
80
80
F8
ENDCHAR
STARTCHAR lcaron
ENCODING 318
SWIDTH 228 0
DWIDTH 3 0
BBX 3 9 1 0
BITMAP
A0
E0
80
80
80
80
80
80
80
ENDCHAR
STARTCHAR Ldot
ENCODING 319
SWIDTH 501 0
DWIDTH 6 0
BBX 5 9 1 0
BITMAP
80
80
80
80
90
80
80
80
F8
ENDCHAR
STARTCHAR ldot
ENCODING 320
SWIDTH 228 0
DWIDTH 3 0
BBX 3 9 1 0
BITMAP
80
80
80
80
A0
80
80
80
80
ENDCHAR
STARTCHAR Lslash
ENCODING 321
SWIDTH 501 0
DWIDTH 6 0
BBX 6 9 0 0
BITMAP
40
40
50
50
60
40
C0
C0
7C
ENDCHAR
STARTCHAR lslash
ENCODING 322
SWIDTH 228 0
DWIDTH 3 0
BBX 3 9 0 0
BITMAP
40
40
40
60
40
C0
C0
40
40
ENDCHAR
STARTCHAR Nacute
ENCODING 323
SWIDTH 592 0
DWIDTH 7 0
BBX 5 11 1 0
BITMAP
30
00
88
C8
C8
E8
A8
B8
98
98
88
ENDCHAR
STARTCHAR nacute
ENCODING 324
SWIDTH 501 0
DWIDTH 6 0
BBX 4 9 1 0
BITMAP
70
00
F0
90
90
90
90
90
90
ENDCHAR
STARTCHAR uni0145
ENCODING 325
SWIDTH 592 0
DWIDTH 7 0
BBX 5 12 1 -3
BITMAP
88
C8
C8
E8
A8
B8
98
98
88
00
20
20
ENDCHAR
STARTCHAR uni0146
ENCODING 326
SWIDTH 501 0
DWIDTH 6 0
BBX 4 10 1 -3
BITMAP
F0
90
90
90
90
90
90
00
60
40
ENDCHAR
STARTCHAR Ncaron
ENCODING 327
SWIDTH 592 0
DWIDTH 7 0
BBX 5 11 1 0
BITMAP
70
00
88
C8
C8
E8
A8
B8
98
98
88
ENDCHAR
STARTCHAR ncaron
ENCODING 328
SWIDTH 501 0
DWIDTH 6 0
BBX 4 9 1 0
BITMAP
F0
60
F0
90
90
90
90
90
90
ENDCHAR
STARTCHAR napostrophe
ENCODING 329
SWIDTH 501 0
DWIDTH 6 0
BBX 6 9 -1 0
BITMAP
C0
40
BC
24
24
24
24
24
24
ENDCHAR
STARTCHAR Eng
ENCODING 330
SWIDTH 592 0
DWIDTH 7 0
BBX 5 11 1 -2
BITMAP
88
C8
C8
E8
A8
B8
98
98
88
08
18
ENDCHAR
STARTCHAR eng
ENCODING 331
SWIDTH 501 0
DWIDTH 6 0
BBX 4 9 1 -2
BITMAP
F0
90
90
90
90
90
90
10
30
ENDCHAR
STARTCHAR Omacron
ENCODING 332
SWIDTH 638 0
DWIDTH 8 0
BBX 7 11 0 0
BITMAP
38
00
3C
66
46
C2
C2
C2
46
66
3C
ENDCHAR
STARTCHAR omacron
ENCODING 333
SWIDTH 501 0
DWIDTH 6 0
BBX 6 9 0 0
BITMAP
78
00
78
48
48
CC
48
48
78
ENDCHAR
STARTCHAR Obreve
ENCODING 334
SWIDTH 638 0
DWIDTH 8 0
BBX 7 11 0 0
BITMAP
38
00
3C
66
46
C2
C2
C2
46
66
3C
ENDCHAR
STARTCHAR obreve
ENCODING 335
SWIDTH 501 0
DWIDTH 6 0
BBX 6 9 0 0
BITMAP
78
00
78
48
48
CC
48
48
78
ENDCHAR
STARTCHAR Ohungarumlaut
ENCODING 336
SWIDTH 638 0
DWIDTH 8 0
BBX 7 11 0 0
BITMAP
3C
00
3C
66
46
C2
C2
C2
46
66
3C
ENDCHAR
STARTCHAR ohungarumlaut
ENCODING 337
SWIDTH 501 0
DWIDTH 6 0
BBX 6 9 0 0
BITMAP
38
00
78
48
48
CC
48
48
78
ENDCHAR
STARTCHAR OE
ENCODING 338
SWIDTH 820 0
DWIDTH 10 0
BBX 10 9 0 0
BITMAP
3F80
4C00
4400
C400
C780
C400
4400
4C00
3FC0
ENDCHAR
STARTCHAR oe
ENCODING 339
SWIDTH 774 0
DWIDTH 9 0
BBX 9 7 0 0
BITMAP
7F00
4D00
4D80
CF80
4C00
4D80
7F00
ENDCHAR
STARTCHAR Racute
ENCODING 340
SWIDTH 592 0
DWIDTH 7 0
BBX 6 11 1 0
BITMAP
70
00
F8
8C
8C
8C
F8
98
98
88
8C
ENDCHAR
STARTCHAR racute
ENCODING 341
SWIDTH 319 0
DWIDTH 4 0
BBX 3 9 1 0
BITMAP
E0
00
E0
80
80
80
80
80
80
ENDCHAR
STARTCHAR uni0156
ENCODING 342
SWIDTH 592 0
DWIDTH 7 0
BBX 6 12 1 -3
BITMAP
F8
8C
8C
8C
F8
98
98
88
8C
00
20
20
ENDCHAR
STARTCHAR uni0157
ENCODING 343
SWIDTH 319 0
DWIDTH 4 0
BBX 3 10 1 -3
BITMAP
E0
80
80
80
80
80
80
00
80
80
ENDCHAR
STARTCHAR Rcaron
ENCODING 344
SWIDTH 592 0
DWIDTH 7 0
BBX 6 11 1 0
BITMAP
70
00
F8
8C
8C
8C
F8
98
98
88
8C
ENDCHAR
STARTCHAR rcaron
ENCODING 345
SWIDTH 319 0
DWIDTH 4 0
BBX 3 9 1 0
BITMAP
E0
C0
E0
80
80
80
80
80
80
ENDCHAR
STARTCHAR Sacute
ENCODING 346
SWIDTH 547 0
DWIDTH 7 0
BBX 6 11 0 0
BITMAP
38
00
38
4C
4C
70
7C
1C
CC
4C
78
ENDCHAR
STARTCHAR sacute
ENCODING 347
SWIDTH 456 0
DWIDTH 5 0
BBX 5 9 0 0
BITMAP
30
00
70
58
E0
78
18
C8
70
ENDCHAR
STARTCHAR Scircumflex
ENCODING 348
SWIDTH 547 0
DWIDTH 7 0
BBX 6 11 0 0
BITMAP
38
00
38
4C
4C
70
7C
1C
CC
4C
78
ENDCHAR
STARTCHAR scircumflex
ENCODING 349
SWIDTH 456 0
DWIDTH 5 0
BBX 5 9 0 0
BITMAP
30
50
70
58
E0
78
18
C8
70
ENDCHAR
STARTCHAR Scedilla
ENCODING 350
SWIDTH 547 0
DWIDTH 7 0
BBX 6 11 0 -2
BITMAP
38
4C
4C
78
7C
1C
CC
4C
70
18
30
ENDCHAR
STARTCHAR scedilla
ENCODING 351
SWIDTH 456 0
DWIDTH 5 0
BBX 5 9 0 -2
BITMAP
70
58
E0
78
18
C8
70
30
30
ENDCHAR
STARTCHAR Scaron
ENCODING 352
SWIDTH 547 0
DWIDTH 7 0
BBX 6 11 0 0
BITMAP
38
00
38
4C
4C
70
7C
1C
CC
4C
78
ENDCHAR
STARTCHAR scaron
ENCODING 353
SWIDTH 456 0
DWIDTH 5 0
BBX 5 9 0 0
BITMAP
50
30
70
58
E0
78
18
C8
70
ENDCHAR
STARTCHAR uni0162
ENCODING 354
SWIDTH 501 0
DWIDTH 6 0
BBX 6 11 0 -2
BITMAP
FC
30
30
30
30
30
30
30
30
30
30
ENDCHAR
STARTCHAR uni0163
ENCODING 355
SWIDTH 273 0
DWIDTH 3 0
BBX 3 11 0 -2
BITMAP
40
40
E0
40
40
40
40
40
60
60
60
ENDCHAR
STARTCHAR Tcaron
ENCODING 356
SWIDTH 501 0
DWIDTH 6 0
BBX 6 11 0 0
BITMAP
78
00
FC
30
30
30
30
30
30
30
30
ENDCHAR
STARTCHAR tcaron
ENCODING 357
SWIDTH 273 0
DWIDTH 3 0
BBX 4 9 0 0
BITMAP
50
50
E0
40
40
40
40
40
60
ENDCHAR
STARTCHAR Tbar
ENCODING 358
SWIDTH 501 0
DWIDTH 6 0
BBX 6 9 0 0
BITMAP
FC
30
30
30
78
30
30
30
30
ENDCHAR
STARTCHAR tbar
ENCODING 359
SWIDTH 273 0
DWIDTH 3 0
BBX 3 9 0 0
BITMAP
40
40
E0
40
E0
40
40
40
60
ENDCHAR
STARTCHAR Utilde
ENCODING 360
SWIDTH 592 0
DWIDTH 7 0
BBX 5 11 1 0
BITMAP
70
00
88
88
88
88
88
88
88
C8
70
ENDCHAR
STARTCHAR utilde
ENCODING 361
SWIDTH 501 0
DWIDTH 6 0
BBX 4 9 1 0
BITMAP
F0
00
90
90
90
90
90
90
F0
ENDCHAR
STARTCHAR Umacron
ENCODING 362
SWIDTH 592 0
DWIDTH 7 0
BBX 5 11 1 0
BITMAP
70
00
88
88
88
88
88
88
88
C8
70
ENDCHAR
STARTCHAR umacron
ENCODING 363
SWIDTH 501 0
DWIDTH 6 0
BBX 4 9 1 0
BITMAP
F0
00
90
90
90
90
90
90
F0
ENDCHAR
STARTCHAR Ubreve
ENCODING 364
SWIDTH 592 0
DWIDTH 7 0
BBX 5 11 1 0
BITMAP
70
00
88
88
88
88
88
88
88
C8
70
ENDCHAR
STARTCHAR ubreve
ENCODING 365
SWIDTH 501 0
DWIDTH 6 0
BBX 4 9 1 0
BITMAP
90
60
90
90
90
90
90
90
F0
ENDCHAR
STARTCHAR Uring
ENCODING 366
SWIDTH 592 0
DWIDTH 7 0
BBX 5 12 1 0
BITMAP
20
50
20
88
88
88
88
88
88
88
C8
70
ENDCHAR
STARTCHAR uring
ENCODING 367
SWIDTH 501 0
DWIDTH 6 0
BBX 4 9 1 0
BITMAP
60
60
90
90
90
90
90
90
F0
ENDCHAR
STARTCHAR Uhungarumlaut
ENCODING 368
SWIDTH 592 0
DWIDTH 7 0
BBX 5 11 1 0
BITMAP
78
00
88
88
88
88
88
88
88
C8
70
ENDCHAR
STARTCHAR uhungarumlaut
ENCODING 369
SWIDTH 501 0
DWIDTH 6 0
BBX 4 9 1 0
BITMAP
70
00
90
90
90
90
90
90
F0
ENDCHAR
STARTCHAR Uogonek
ENCODING 370
SWIDTH 592 0
DWIDTH 7 0
BBX 5 11 1 -2
BITMAP
88
88
88
88
88
88
88
C8
70
20
30
ENDCHAR
STARTCHAR uogonek
ENCODING 371
SWIDTH 501 0
DWIDTH 6 0
BBX 5 9 1 -2
BITMAP
90
90
90
90
90
90
F0
10
18
ENDCHAR
STARTCHAR Wcircumflex
ENCODING 372
SWIDTH 774 0
DWIDTH 9 0
BBX 9 11 0 0
BITMAP
1C00
0000
CC80
CC80
DC80
5580
5500
7700
7700
7300
2300
ENDCHAR
STARTCHAR wcircumflex
ENCODING 373
SWIDTH 638 0
DWIDTH 8 0
BBX 8 9 0 0
BITMAP
18
38
DB
DA
5A
5A
6A
6C
64
ENDCHAR
STARTCHAR Ycircumflex
ENCODING 374
SWIDTH 547 0
DWIDTH 7 0
BBX 7 11 0 0
BITMAP
38
00
C6
4C
68
28
38
30
10
10
10
ENDCHAR
STARTCHAR ycircumflex
ENCODING 375
SWIDTH 456 0
DWIDTH 5 0
BBX 5 11 0 -2
BITMAP
30
50
C8
C8
58
70
70
30
30
20
60
ENDCHAR
STARTCHAR Ydieresis
ENCODING 376
SWIDTH 547 0
DWIDTH 7 0
BBX 7 11 0 0
BITMAP
28
00
C6
4C
68
28
38
30
10
10
10
ENDCHAR
STARTCHAR Zacute
ENCODING 377
SWIDTH 501 0
DWIDTH 6 0
BBX 6 11 0 0
BITMAP
30
00
FC
18
18
30
30
20
60
60
FC
ENDCHAR
STARTCHAR zacute
ENCODING 378
SWIDTH 410 0
DWIDTH 5 0
BBX 5 9 0 0
BITMAP
30
00
F8
30
30
20
60
40
F8
ENDCHAR
STARTCHAR Zdotaccent
ENCODING 379
SWIDTH 501 0
DWIDTH 6 0
BBX 6 11 0 0
BITMAP
30
00
FC
18
18
30
30
20
60
60
FC
ENDCHAR
STARTCHAR zdotaccent
ENCODING 380
SWIDTH 410 0
DWIDTH 5 0
BBX 5 9 0 0
BITMAP
20
00
F8
30
30
20
60
40
F8
ENDCHAR
STARTCHAR Zcaron
ENCODING 381
SWIDTH 501 0
DWIDTH 6 0
BBX 6 11 0 0
BITMAP
78
00
FC
18
18
30
30
20
60
60
FC
ENDCHAR
STARTCHAR zcaron
ENCODING 382
SWIDTH 410 0
DWIDTH 5 0
BBX 5 9 0 0
BITMAP
50
20
F8
30
30
20
60
40
F8
ENDCHAR
STARTCHAR longs
ENCODING 383
SWIDTH 228 0
DWIDTH 3 0
BBX 3 9 0 0
BITMAP
60
40
C0
40
40
40
40
40
40
ENDCHAR
STARTCHAR uni018F
ENCODING 399
SWIDTH 600 0
DWIDTH 7 0
BBX 6 9 1 0
BITMAP
70
C8
8C
0C
FC
8C
8C
C8
70
ENDCHAR
STARTCHAR uni0191
ENCODING 401
SWIDTH 501 0
DWIDTH 6 0
BBX 6 11 0 -2
BITMAP
7C
40
40
40
78
40
40
40
40
40
C0
ENDCHAR
STARTCHAR florin
ENCODING 402
SWIDTH 456 0
DWIDTH 5 0
BBX 5 11 0 -2
BITMAP
18
10
78
30
30
20
20
20
20
20
C0
ENDCHAR
STARTCHAR uni019D
ENCODING 413
SWIDTH 592 0
DWIDTH 7 0
BBX 6 11 0 -2
BITMAP
44
64
64
74
54
5C
4C
4C
44
40
C0
ENDCHAR
STARTCHAR Ohorn
ENCODING 416
SWIDTH 638 0
DWIDTH 8 0
BBX 7 11 0 0
BITMAP
02
02
3E
66
46
C2
C2
C2
46
66
3C
ENDCHAR
STARTCHAR ohorn
ENCODING 417
SWIDTH 501 0
DWIDTH 6 0
BBX 6 9 0 0
BITMAP
04
04
78
48
48
CC
48
48
78
ENDCHAR
STARTCHAR Uhorn
ENCODING 431
SWIDTH 592 0
DWIDTH 7 0
BBX 7 11 1 0
BITMAP
06
06
8C
88
88
88
88
88
88
C8
70
ENDCHAR
STARTCHAR uhorn
ENCODING 432
SWIDTH 501 0
DWIDTH 6 0
BBX 6 9 1 0
BITMAP
04
04
98
90
90
90
90
90
F0
ENDCHAR
STARTCHAR uni01C4
ENCODING 452
SWIDTH 1093 0
DWIDTH 13 0
BBX 12 11 1 0
BITMAP
01E0
0000
F1F0
9860
8860
8C40
8CC0
8CC0
8980
9980
F3F0
ENDCHAR
STARTCHAR uni01C5
ENCODING 453
SWIDTH 1002 0
DWIDTH 12 0
BBX 11 9 1 0
BITMAP
F140
F880
9BE0
8C40
8CC0
8C80
8980
9900
F3E0
ENDCHAR
STARTCHAR uni01C6
ENCODING 454
SWIDTH 911 0
DWIDTH 11 0
BBX 11 9 0 0
BITMAP
0940
0880
7BE0
48C0
48C0
C880
4980
4900
7BE0
ENDCHAR
STARTCHAR uni01C7
ENCODING 455
SWIDTH 907 0
DWIDTH 11 0
BBX 9 9 1 0
BITMAP
8080
8080
8080
8080
8080
8080
8080
8480
F700
ENDCHAR
STARTCHAR uni01C8
ENCODING 456
SWIDTH 729 0
DWIDTH 9 0
BBX 7 11 1 -2
BITMAP
82
80
82
82
82
82
82
82
FA
02
06
ENDCHAR
STARTCHAR uni01C9
ENCODING 457
SWIDTH 456 0
DWIDTH 5 0
BBX 4 11 1 -2
BITMAP
B0
80
B0
B0
B0
B0
B0
B0
B0
30
60
ENDCHAR
STARTCHAR uni01CA
ENCODING 458
SWIDTH 1048 0
DWIDTH 13 0
BBX 11 9 1 0
BITMAP
8860
C860
C860
E860
A860
B860
9B60
9B60
89C0
ENDCHAR
STARTCHAR uni01CB
ENCODING 459
SWIDTH 820 0
DWIDTH 10 0
BBX 8 11 1 -2
BITMAP
89
C8
C9
E9
A9
B9
99
99
89
01
03
ENDCHAR
STARTCHAR uni01CC
ENCODING 460
SWIDTH 729 0
DWIDTH 9 0
BBX 7 11 1 -2
BITMAP
02
00
F2
92
92
92
92
92
92
02
06
ENDCHAR
STARTCHAR uni01CD
ENCODING 461
SWIDTH 592 0
DWIDTH 7 0
BBX 7 11 0 0
BITMAP
38
00
18
38
28
28
6C
6C
7C
C6
C6
ENDCHAR
STARTCHAR uni01CE
ENCODING 462
SWIDTH 456 0
DWIDTH 5 0
BBX 5 9 0 0
BITMAP
50
20
70
D8
18
78
D8
D8
78
ENDCHAR
STARTCHAR uni01CF
ENCODING 463
SWIDTH 228 0
DWIDTH 3 0
BBX 3 11 0 0
BITMAP
E0
00
40
40
40
40
40
40
40
40
40
ENDCHAR
STARTCHAR uni01D0
ENCODING 464
SWIDTH 228 0
DWIDTH 3 0
BBX 3 9 0 0
BITMAP
A0
40
40
40
40
40
40
40
40
ENDCHAR
STARTCHAR uni01D1
ENCODING 465
SWIDTH 638 0
DWIDTH 8 0
BBX 7 11 0 0
BITMAP
38
00
3C
66
46
C2
C2
C2
46
66
3C
ENDCHAR
STARTCHAR uni01D2
ENCODING 466
SWIDTH 501 0
DWIDTH 6 0
BBX 6 9 0 0
BITMAP
78
30
78
48
48
CC
48
48
78
ENDCHAR
STARTCHAR uni01D3
ENCODING 467
SWIDTH 592 0
DWIDTH 7 0
BBX 5 11 1 0
BITMAP
70
00
88
88
88
88
88
88
88
C8
70
ENDCHAR
STARTCHAR uni01D4
ENCODING 468
SWIDTH 501 0
DWIDTH 6 0
BBX 4 9 1 0
BITMAP
F0
60
90
90
90
90
90
90
F0
ENDCHAR
STARTCHAR uni01D5
ENCODING 469
SWIDTH 592 0
DWIDTH 7 0
BBX 5 13 1 0
BITMAP
70
00
50
00
88
88
88
88
88
88
88
C8
70
ENDCHAR
STARTCHAR uni01D6
ENCODING 470
SWIDTH 501 0
DWIDTH 6 0
BBX 4 11 1 0
BITMAP
F0
00
F0
00
90
90
90
90
90
90
F0
ENDCHAR
STARTCHAR uni01D7
ENCODING 471
SWIDTH 592 0
DWIDTH 7 0
BBX 5 13 1 0
BITMAP
30
00
50
00
88
88
88
88
88
88
88
C8
70
ENDCHAR
STARTCHAR uni01D8
ENCODING 472
SWIDTH 501 0
DWIDTH 6 0
BBX 4 12 1 0
BITMAP
70
00
00
F0
00
90
90
90
90
90
90
F0
ENDCHAR
STARTCHAR uni01D9
ENCODING 473
SWIDTH 592 0
DWIDTH 7 0
BBX 5 13 1 0
BITMAP
70
00
50
00
88
88
88
88
88
88
88
C8
70
ENDCHAR
STARTCHAR uni01DA
ENCODING 474
SWIDTH 501 0
DWIDTH 6 0
BBX 4 12 1 0
BITMAP
F0
60
00
F0
00
90
90
90
90
90
90
F0
ENDCHAR
STARTCHAR uni01DB
ENCODING 475
SWIDTH 592 0
DWIDTH 7 0
BBX 5 13 1 0
BITMAP
60
00
50
00
88
88
88
88
88
88
88
C8
70
ENDCHAR
STARTCHAR uni01DC
ENCODING 476
SWIDTH 501 0
DWIDTH 6 0
BBX 4 12 1 0
BITMAP
E0
00
00
F0
00
90
90
90
90
90
90
F0
ENDCHAR
STARTCHAR Gcaron
ENCODING 486
SWIDTH 638 0
DWIDTH 8 0
BBX 7 11 0 0
BITMAP
38
00
3C
66
46
C0
CE
C6
46
66
3A
ENDCHAR
STARTCHAR gcaron
ENCODING 487
SWIDTH 501 0
DWIDTH 6 0
BBX 6 11 0 -2
BITMAP
78
34
78
48
48
78
40
C0
7C
CC
F8
ENDCHAR
STARTCHAR uni01EA
ENCODING 490
SWIDTH 638 0
DWIDTH 8 0
BBX 7 11 0 -2
BITMAP
3C
66
42
C2
C2
C2
46
7C
18
10
18
ENDCHAR
STARTCHAR uni01EB
ENCODING 491
SWIDTH 501 0
DWIDTH 6 0
BBX 6 9 0 -2
BITMAP
78
48
48
CC
48
78
30
20
30
ENDCHAR
STARTCHAR Aringacute
ENCODING 506
SWIDTH 592 0
DWIDTH 7 0
BBX 7 12 0 0
BITMAP
18
10
28
38
38
28
2C
6C
6C
7C
C6
C6
ENDCHAR
STARTCHAR aringacute
ENCODING 507
SWIDTH 456 0
DWIDTH 5 0
BBX 5 12 0 0
BITMAP
30
00
00
30
70
70
D8
18
78
D8
D8
78
ENDCHAR
STARTCHAR AEacute
ENCODING 508
SWIDTH 820 0
DWIDTH 10 0
BBX 9 11 0 0
BITMAP
0600
0000
1F80
1800
2800
2C00
6F80
6400
7C00
C600
8780
ENDCHAR
STARTCHAR aeacute
ENCODING 509
SWIDTH 729 0
DWIDTH 9 0
BBX 8 9 0 0
BITMAP
0C
00
76
49
09
7F
48
D9
7F
ENDCHAR
STARTCHAR Oslashacute
ENCODING 510
SWIDTH 638 0
DWIDTH 8 0
BBX 7 11 0 0
BITMAP
18
00
3E
66
4E
CA
D2
D2
66
66
FC
ENDCHAR
STARTCHAR oslashacute
ENCODING 511
SWIDTH 501 0
DWIDTH 6 0
BBX 6 9 0 0
BITMAP
38
00
78
58
58
DC
68
68
78
ENDCHAR
STARTCHAR uni0200
ENCODING 512
SWIDTH 592 0
DWIDTH 7 0
BBX 7 11 0 0
BITMAP
78
00
18
38
28
28
6C
6C
7C
C6
C6
ENDCHAR
STARTCHAR uni0201
ENCODING 513
SWIDTH 456 0
DWIDTH 5 0
BBX 5 9 0 0
BITMAP
F0
00
70
D8
18
78
D8
D8
78
ENDCHAR
STARTCHAR uni0202
ENCODING 514
SWIDTH 592 0
DWIDTH 7 0
BBX 7 12 0 0
BITMAP
38
28
00
18
38
28
28
6C
6C
7C
C6
C6
ENDCHAR
STARTCHAR uni0203
ENCODING 515
SWIDTH 456 0
DWIDTH 5 0
BBX 5 9 0 0
BITMAP
70
00
70
D8
18
78
D8
D8
78
ENDCHAR
STARTCHAR uni0204
ENCODING 516
SWIDTH 547 0
DWIDTH 7 0
BBX 5 11 1 0
BITMAP
F0
00
F8
80
80
80
F0
80
80
80
F8
ENDCHAR
STARTCHAR uni0205
ENCODING 517
SWIDTH 456 0
DWIDTH 5 0
BBX 5 9 0 0
BITMAP
70
20
70
58
C8
F8
C0
58
70
ENDCHAR
STARTCHAR uni0206
ENCODING 518
SWIDTH 547 0
DWIDTH 7 0
BBX 5 12 1 0
BITMAP
70
50
00
F8
80
80
80
F0
80
80
80
F8
ENDCHAR
STARTCHAR uni0207
ENCODING 519
SWIDTH 456 0
DWIDTH 5 0
BBX 5 9 0 0
BITMAP
70
00
70
58
C8
F8
C0
58
70
ENDCHAR
STARTCHAR uni0208
ENCODING 520
SWIDTH 228 0
DWIDTH 3 0
BBX 4 11 -1 0
BITMAP
F0
00
20
20
20
20
20
20
20
20
20
ENDCHAR
STARTCHAR uni0209
ENCODING 521
SWIDTH 228 0
DWIDTH 3 0
BBX 4 9 -1 0
BITMAP
F0
00
20
20
20
20
20
20
20
ENDCHAR
STARTCHAR uni020A
ENCODING 522
SWIDTH 228 0
DWIDTH 3 0
BBX 3 12 0 0
BITMAP
E0
A0
00
40
40
40
40
40
40
40
40
40
ENDCHAR
STARTCHAR uni020B
ENCODING 523
SWIDTH 228 0
DWIDTH 3 0
BBX 3 9 0 0
BITMAP
E0
00
40
40
40
40
40
40
40
ENDCHAR
STARTCHAR uni020C
ENCODING 524
SWIDTH 638 0
DWIDTH 8 0
BBX 7 11 0 0
BITMAP
38
00
3C
66
46
C2
C2
C2
46
66
3C
ENDCHAR
STARTCHAR uni020D
ENCODING 525
SWIDTH 501 0
DWIDTH 6 0
BBX 6 9 0 0
BITMAP
70
00
78
48
48
CC
48
48
78
ENDCHAR
STARTCHAR uni020E
ENCODING 526
SWIDTH 638 0
DWIDTH 8 0
BBX 7 12 0 0
BITMAP
18
28
00
3C
66
46
C2
C2
C2
46
66
3C
ENDCHAR
STARTCHAR uni020F
ENCODING 527
SWIDTH 501 0
DWIDTH 6 0
BBX 6 9 0 0
BITMAP
30
48
78
48
48
CC
48
48
78
ENDCHAR
STARTCHAR uni0210
ENCODING 528
SWIDTH 592 0
DWIDTH 7 0
BBX 6 11 1 0
BITMAP
F0
00
F8
8C
8C
8C
F8
98
98
88
8C
ENDCHAR
STARTCHAR uni0211
ENCODING 529
SWIDTH 319 0
DWIDTH 4 0
BBX 4 9 0 0
BITMAP
F0
00
70
40
40
40
40
40
40
ENDCHAR
STARTCHAR uni0212
ENCODING 530
SWIDTH 592 0
DWIDTH 7 0
BBX 6 12 1 0
BITMAP
70
50
00
F8
8C
8C
8C
F8
98
98
88
8C
ENDCHAR
STARTCHAR uni0213
ENCODING 531
SWIDTH 319 0
DWIDTH 4 0
BBX 3 9 1 0
BITMAP
E0
00
E0
80
80
80
80
80
80
ENDCHAR
STARTCHAR uni0214
ENCODING 532
SWIDTH 592 0
DWIDTH 7 0
BBX 5 11 1 0
BITMAP
F0
00
88
88
88
88
88
88
88
C8
70
ENDCHAR
STARTCHAR uni0215
ENCODING 533
SWIDTH 501 0
DWIDTH 6 0
BBX 4 9 1 0
BITMAP
E0
00
90
90
90
90
90
90
F0
ENDCHAR
STARTCHAR uni0216
ENCODING 534
SWIDTH 592 0
DWIDTH 7 0
BBX 5 12 1 0
BITMAP
70
50
00
88
88
88
88
88
88
88
C8
70
ENDCHAR
STARTCHAR uni0217
ENCODING 535
SWIDTH 501 0
DWIDTH 6 0
BBX 4 9 1 0
BITMAP
60
90
90
90
90
90
90
90
F0
ENDCHAR
STARTCHAR uni0218
ENCODING 536
SWIDTH 547 0
DWIDTH 7 0
BBX 6 12 0 -3
BITMAP
38
4C
4C
70
7C
1C
CC
4C
78
00
10
10
ENDCHAR
STARTCHAR uni0219
ENCODING 537
SWIDTH 456 0
DWIDTH 5 0
BBX 5 10 0 -3
BITMAP
70
58
E0
78
18
C8
70
00
20
20
ENDCHAR
STARTCHAR uni021A
ENCODING 538
SWIDTH 501 0
DWIDTH 6 0
BBX 6 12 0 -3
BITMAP
FC
30
30
30
30
30
30
30
30
00
30
30
ENDCHAR
STARTCHAR uni021B
ENCODING 539
SWIDTH 273 0
DWIDTH 3 0
BBX 3 12 0 -3
BITMAP
40
40
E0
40
40
40
40
40
60
00
60
40
ENDCHAR
STARTCHAR uni022A
ENCODING 554
SWIDTH 638 0
DWIDTH 8 0
BBX 7 13 0 0
BITMAP
38
00
28
00
3C
66
46
C2
C2
C2
46
66
3C
ENDCHAR
STARTCHAR uni022B
ENCODING 555
SWIDTH 501 0
DWIDTH 6 0
BBX 6 12 0 0
BITMAP
78
00
00
78
00
78
48
48
CC
48
48
78
ENDCHAR
STARTCHAR uni022C
ENCODING 556
SWIDTH 638 0
DWIDTH 8 0
BBX 7 13 0 0
BITMAP
38
00
3C
00
3C
66
46
C2
C2
C2
46
66
3C
ENDCHAR
STARTCHAR uni022D
ENCODING 557
SWIDTH 501 0
DWIDTH 6 0
BBX 6 11 0 0
BITMAP
78
00
78
00
78
48
48
CC
48
48
78
ENDCHAR
STARTCHAR uni0230
ENCODING 560
SWIDTH 638 0
DWIDTH 8 0
BBX 7 13 0 0
BITMAP
38
00
18
00
3C
66
46
C2
C2
C2
46
66
3C
ENDCHAR
STARTCHAR uni0231
ENCODING 561
SWIDTH 501 0
DWIDTH 6 0
BBX 6 11 0 0
BITMAP
78
00
30
00
78
48
48
CC
48
48
78
ENDCHAR
STARTCHAR uni0232
ENCODING 562
SWIDTH 547 0
DWIDTH 7 0
BBX 7 11 0 0
BITMAP
38
00
C6
4C
68
28
38
30
10
10
10
ENDCHAR
STARTCHAR uni0233
ENCODING 563
SWIDTH 456 0
DWIDTH 5 0
BBX 5 11 0 -2
BITMAP
70
00
C8
C8
58
70
70
30
30
20
60
ENDCHAR
STARTCHAR uni0237
ENCODING 567
SWIDTH 228 0
DWIDTH 3 0
BBX 2 9 0 -2
BITMAP
40
40
40
40
40
40
40
40
C0
ENDCHAR
STARTCHAR uni0259
ENCODING 601
SWIDTH 456 0
DWIDTH 5 0
BBX 5 7 0 0
BITMAP
70
D8
08
F8
C8
58
70
ENDCHAR
STARTCHAR uni0272
ENCODING 626
SWIDTH 501 0
DWIDTH 6 0
BBX 5 9 0 -2
BITMAP
78
48
48
48
48
48
48
40
C0
ENDCHAR
STARTCHAR uni02B9
ENCODING 697
SWIDTH 195 0
DWIDTH 2 0
BBX 2 2 0 7
BITMAP
40
80
ENDCHAR
STARTCHAR uni02BA
ENCODING 698
SWIDTH 337 0
DWIDTH 4 0
BBX 4 2 0 7
BITMAP
70
A0
ENDCHAR
STARTCHAR uni02BC
ENCODING 700
SWIDTH 138 0
DWIDTH 2 0
BBX 2 3 0 7
BITMAP
C0
C0
80
ENDCHAR
STARTCHAR circumflex
ENCODING 710
SWIDTH 273 0
DWIDTH 3 0
BBX 3 2 0 8
BITMAP
40
A0
ENDCHAR
STARTCHAR caron
ENCODING 711
SWIDTH 273 0
DWIDTH 3 0
BBX 3 2 0 8
BITMAP
A0
40
ENDCHAR
STARTCHAR uni02C9
ENCODING 713
SWIDTH 273 0
DWIDTH 3 0
BBX 3 1 0 8
BITMAP
E0
ENDCHAR
STARTCHAR breve
ENCODING 728
SWIDTH 273 0
DWIDTH 3 0
BBX 3 2 0 8
BITMAP
A0
E0
ENDCHAR
STARTCHAR dotaccent
ENCODING 729
SWIDTH 273 0
DWIDTH 3 0
BBX 1 2 1 8
BITMAP
80
80
ENDCHAR
STARTCHAR ring
ENCODING 730
SWIDTH 273 0
DWIDTH 3 0
BBX 2 3 1 7
BITMAP
C0
C0
C0
ENDCHAR
STARTCHAR ogonek
ENCODING 731
SWIDTH 273 0
DWIDTH 3 0
BBX 2 3 1 -2
BITMAP
80
80
C0
ENDCHAR
STARTCHAR tilde
ENCODING 732
SWIDTH 273 0
DWIDTH 3 0
BBX 4 2 0 8
BITMAP
D0
A0
ENDCHAR
STARTCHAR hungarumlaut
ENCODING 733
SWIDTH 273 0
DWIDTH 3 0
BBX 4 2 0 8
BITMAP
70
A0
ENDCHAR
STARTCHAR gravecomb
ENCODING 768
SWIDTH 0 0
DWIDTH 0 0
BBX 2 2 -3 8
BITMAP
C0
40
ENDCHAR
STARTCHAR acutecomb
ENCODING 769
SWIDTH 0 0
DWIDTH 0 0
BBX 2 2 -2 8
BITMAP
C0
80
ENDCHAR
STARTCHAR uni0302
ENCODING 770
SWIDTH 0 0
DWIDTH 0 0
BBX 3 2 -3 8
BITMAP
40
A0
ENDCHAR
STARTCHAR tildecomb
ENCODING 771
SWIDTH 0 0
DWIDTH 0 0
BBX 4 2 -4 8
BITMAP
D0
B0
ENDCHAR
STARTCHAR uni0304
ENCODING 772
SWIDTH 0 0
DWIDTH 0 0
BBX 3 1 -3 8
BITMAP
E0
ENDCHAR
STARTCHAR uni0306
ENCODING 774
SWIDTH 0 0
DWIDTH 0 0
BBX 3 2 -3 7
BITMAP
A0
E0
ENDCHAR
STARTCHAR uni0307
ENCODING 775
SWIDTH 0 0
DWIDTH 0 0
BBX 1 2 -1 8
BITMAP
80
80
ENDCHAR
STARTCHAR uni0308
ENCODING 776
SWIDTH 0 0
DWIDTH 0 0
BBX 3 1 -3 8
BITMAP
A0
ENDCHAR
STARTCHAR hookabovecomb
ENCODING 777
SWIDTH 0 0
DWIDTH 0 0
BBX 2 2 -2 7
BITMAP
C0
C0
ENDCHAR
STARTCHAR uni030A
ENCODING 778
SWIDTH 0 0
DWIDTH 0 0
BBX 2 3 -2 7
BITMAP
C0
C0
C0
ENDCHAR
STARTCHAR uni030B
ENCODING 779
SWIDTH 0 0
DWIDTH 0 0
BBX 3 2 -3 8
BITMAP
E0
E0
ENDCHAR
STARTCHAR uni030C
ENCODING 780
SWIDTH 0 0
DWIDTH 0 0
BBX 3 2 -3 8
BITMAP
A0
40
ENDCHAR
STARTCHAR uni030F
ENCODING 783
SWIDTH 0 0
DWIDTH 0 0
BBX 4 2 -4 8
BITMAP
E0
50
ENDCHAR
STARTCHAR uni0311
ENCODING 785
SWIDTH 0 0
DWIDTH 0 0
BBX 3 1 -3 8
BITMAP
E0
ENDCHAR
STARTCHAR uni0312
ENCODING 786
SWIDTH 0 0
DWIDTH 0 0
BBX 2 2 -2 8
BITMAP
40
C0
ENDCHAR
STARTCHAR uni031B
ENCODING 795
SWIDTH 0 0
DWIDTH 0 0
BBX 3 3 -3 6
BITMAP
20
20
E0
ENDCHAR
STARTCHAR dotbelowcomb
ENCODING 803
SWIDTH 0 0
DWIDTH 0 0
BBX 1 2 -1 -2
BITMAP
80
80
ENDCHAR
STARTCHAR uni0324
ENCODING 804
SWIDTH 0 0
DWIDTH 0 0
BBX 3 2 -3 -2
BITMAP
A0
A0
ENDCHAR
STARTCHAR uni0326
ENCODING 806
SWIDTH 0 0
DWIDTH 0 0
BBX 1 2 -1 -3
BITMAP
80
80
ENDCHAR
STARTCHAR uni0327
ENCODING 807
SWIDTH 0 0
DWIDTH 0 0
BBX 2 2 -2 -2
BITMAP
C0
C0
ENDCHAR
STARTCHAR uni0328
ENCODING 808
SWIDTH 0 0
DWIDTH 0 0
BBX 2 3 -2 -2
BITMAP
40
80
C0
ENDCHAR
STARTCHAR uni032E
ENCODING 814
SWIDTH 0 0
DWIDTH 0 0
BBX 3 2 -3 -2
BITMAP
A0
E0
ENDCHAR
STARTCHAR uni0331
ENCODING 817
SWIDTH 0 0
DWIDTH 0 0
BBX 3 1 -3 -2
BITMAP
E0
ENDCHAR
STARTCHAR uni0335
ENCODING 821
SWIDTH 0 0
DWIDTH 0 0
BBX 6 1 -6 4
BITMAP
FC
ENDCHAR
STARTCHAR uni0336
ENCODING 822
SWIDTH 0 0
DWIDTH 0 0
BBX 7 1 -7 4
BITMAP
FE
ENDCHAR
STARTCHAR uni0337
ENCODING 823
SWIDTH 0 0
DWIDTH 0 0
BBX 2 3 -2 3
BITMAP
40
40
80
ENDCHAR
STARTCHAR uni0338
ENCODING 824
SWIDTH 0 0
DWIDTH 0 0
BBX 5 8 -5 0
BITMAP
08
08
10
20
20
40
40
80
ENDCHAR
STARTCHAR uni03BC
ENCODING 956
SWIDTH 501 0
DWIDTH 6 0
BBX 4 9 1 -2
BITMAP
90
90
90
90
90
90
F0
80
80
ENDCHAR
STARTCHAR pi
ENCODING 960
SWIDTH 628 0
DWIDTH 8 0
BBX 7 7 0 0
BITMAP
FE
2C
2C
2C
6C
6C
44
ENDCHAR
STARTCHAR Wgrave
ENCODING 7808
SWIDTH 774 0
DWIDTH 9 0
BBX 9 11 0 0
BITMAP
1800
0000
CC80
CC80
DC80
5580
5500
7700
7700
7300
2300
ENDCHAR
STARTCHAR wgrave
ENCODING 7809
SWIDTH 638 0
DWIDTH 8 0
BBX 8 9 0 0
BITMAP
38
00
DB
DA
5A
5A
6A
6C
64
ENDCHAR
STARTCHAR Wacute
ENCODING 7810
SWIDTH 774 0
DWIDTH 9 0
BBX 9 11 0 0
BITMAP
0C00
0000
CC80
CC80
DC80
5580
5500
7700
7700
7300
2300
ENDCHAR
STARTCHAR wacute
ENCODING 7811
SWIDTH 638 0
DWIDTH 8 0
BBX 8 9 0 0
BITMAP
18
00
DB
DA
5A
5A
6A
6C
64
ENDCHAR
STARTCHAR Wdieresis
ENCODING 7812
SWIDTH 774 0
DWIDTH 9 0
BBX 9 11 0 0
BITMAP
1400
0000
CC80
CC80
DC80
5580
5500
7700
7700
7300
2300
ENDCHAR
STARTCHAR wdieresis
ENCODING 7813
SWIDTH 638 0
DWIDTH 8 0
BBX 8 9 0 0
BITMAP
28
00
DB
DA
5A
5A
6A
6C
64
ENDCHAR
STARTCHAR uni1E9E
ENCODING 7838
SWIDTH 611 0
DWIDTH 7 0
BBX 6 9 1 0
BITMAP
78
CC
8C
8C
B8
8C
84
8C
B8
ENDCHAR
STARTCHAR uni1EA0
ENCODING 7840
SWIDTH 592 0
DWIDTH 7 0
BBX 7 11 0 -2
BITMAP
18
38
28
28
6C
6C
7C
C6
C6
00
10
ENDCHAR
STARTCHAR uni1EA1
ENCODING 7841
SWIDTH 456 0
DWIDTH 5 0
BBX 5 9 0 -2
BITMAP
70
D8
18
78
D8
D8
78
00
20
ENDCHAR
STARTCHAR uni1EA2
ENCODING 7842
SWIDTH 592 0
DWIDTH 7 0
BBX 7 12 0 0
BITMAP
18
18
00
18
38
28
28
6C
6C
7C
C6
C6
ENDCHAR
STARTCHAR uni1EA3
ENCODING 7843
SWIDTH 456 0
DWIDTH 5 0
BBX 5 9 0 0
BITMAP
30
00
70
D8
18
78
D8
D8
78
ENDCHAR
STARTCHAR uni1EA4
ENCODING 7844
SWIDTH 592 0
DWIDTH 7 0
BBX 7 13 0 0
BITMAP
18
00
38
00
18
38
28
28
6C
6C
7C
C6
C6
ENDCHAR
STARTCHAR uni1EA5
ENCODING 7845
SWIDTH 456 0
DWIDTH 5 0
BBX 5 12 0 0
BITMAP
10
20
00
20
50
70
D8
18
78
D8
D8
78
ENDCHAR
STARTCHAR uni1EA6
ENCODING 7846
SWIDTH 592 0
DWIDTH 7 0
BBX 7 13 0 0
BITMAP
30
00
38
00
18
38
28
28
6C
6C
7C
C6
C6
ENDCHAR
STARTCHAR uni1EA7
ENCODING 7847
SWIDTH 456 0
DWIDTH 5 0
BBX 5 11 0 0
BITMAP
60
00
20
50
70
D8
18
78
D8
D8
78
ENDCHAR
STARTCHAR uni1EA8
ENCODING 7848
SWIDTH 592 0
DWIDTH 7 0
BBX 7 14 0 0
BITMAP
18
08
10
38
00
18
38
28
28
6C
6C
7C
C6
C6
ENDCHAR
STARTCHAR uni1EA9
ENCODING 7849
SWIDTH 456 0
DWIDTH 5 0
BBX 5 12 0 0
BITMAP
30
30
00
20
50
70
D8
18
78
D8
D8
78
ENDCHAR
STARTCHAR uni1EAA
ENCODING 7850
SWIDTH 592 0
DWIDTH 7 0
BBX 7 13 0 0
BITMAP
38
00
38
00
18
38
28
28
6C
6C
7C
C6
C6
ENDCHAR
STARTCHAR uni1EAB
ENCODING 7851
SWIDTH 456 0
DWIDTH 5 0
BBX 5 12 0 0
BITMAP
68
50
00
20
50
70
D8
18
78
D8
D8
78
ENDCHAR
STARTCHAR uni1EAC
ENCODING 7852
SWIDTH 592 0
DWIDTH 7 0
BBX 7 13 0 -2
BITMAP
38
00
18
38
28
28
6C
6C
7C
C6
C6
00
10
ENDCHAR
STARTCHAR uni1EAD
ENCODING 7853
SWIDTH 456 0
DWIDTH 5 0
BBX 5 11 0 -2
BITMAP
20
50
70
D8
18
78
D8
D8
78
00
20
ENDCHAR
STARTCHAR uni1EAE
ENCODING 7854
SWIDTH 592 0
DWIDTH 7 0
BBX 7 13 0 0
BITMAP
18
28
38
00
18
38
28
28
6C
6C
7C
C6
C6
ENDCHAR
STARTCHAR uni1EAF
ENCODING 7855
SWIDTH 456 0
DWIDTH 5 0
BBX 5 11 0 0
BITMAP
30
00
70
00
70
D8
18
78
D8
D8
78
ENDCHAR
STARTCHAR uni1EB0
ENCODING 7856
SWIDTH 592 0
DWIDTH 7 0
BBX 7 13 0 0
BITMAP
30
28
38
00
18
38
28
28
6C
6C
7C
C6
C6
ENDCHAR
STARTCHAR uni1EB1
ENCODING 7857
SWIDTH 456 0
DWIDTH 5 0
BBX 5 11 0 0
BITMAP
60
00
70
00
70
D8
18
78
D8
D8
78
ENDCHAR
STARTCHAR uni1EB2
ENCODING 7858
SWIDTH 592 0
DWIDTH 7 0
BBX 7 13 0 0
BITMAP
18
18
38
00
18
38
28
28
6C
6C
7C
C6
C6
ENDCHAR
STARTCHAR uni1EB3
ENCODING 7859
SWIDTH 456 0
DWIDTH 5 0
BBX 5 11 0 0
BITMAP
30
30
70
00
70
D8
18
78
D8
D8
78
ENDCHAR
STARTCHAR uni1EB4
ENCODING 7860
SWIDTH 592 0
DWIDTH 7 0
BBX 7 13 0 0
BITMAP
38
28
38
00
18
38
28
28
6C
6C
7C
C6
C6
ENDCHAR
STARTCHAR uni1EB5
ENCODING 7861
SWIDTH 456 0
DWIDTH 5 0
BBX 5 11 0 0
BITMAP
78
00
70
00
70
D8
18
78
D8
D8
78
ENDCHAR
STARTCHAR uni1EB6
ENCODING 7862
SWIDTH 592 0
DWIDTH 7 0
BBX 7 14 0 -2
BITMAP
28
38
00
18
38
28
28
6C
6C
7C
C6
C6
00
10
ENDCHAR
STARTCHAR uni1EB7
ENCODING 7863
SWIDTH 456 0
DWIDTH 5 0
BBX 5 11 0 -2
BITMAP
70
00
70
D8
18
78
D8
D8
78
00
20
ENDCHAR
STARTCHAR uni1EB8
ENCODING 7864
SWIDTH 547 0
DWIDTH 7 0
BBX 5 11 1 -2
BITMAP
F8
80
80
80
F0
80
80
80
F8
00
20
ENDCHAR
STARTCHAR uni1EB9
ENCODING 7865
SWIDTH 456 0
DWIDTH 5 0
BBX 5 9 0 -2
BITMAP
70
58
C8
F8
C0
58
70
00
20
ENDCHAR
STARTCHAR uni1EBA
ENCODING 7866
SWIDTH 547 0
DWIDTH 7 0
BBX 5 12 1 0
BITMAP
30
20
00
F8
80
80
80
F0
80
80
80
F8
ENDCHAR
STARTCHAR uni1EBB
ENCODING 7867
SWIDTH 456 0
DWIDTH 5 0
BBX 5 9 0 0
BITMAP
30
00
70
58
C8
F8
C0
58
70
ENDCHAR
STARTCHAR uni1EBC
ENCODING 7868
SWIDTH 547 0
DWIDTH 7 0
BBX 5 11 1 0
BITMAP
70
00
F8
80
80
80
F0
80
80
80
F8
ENDCHAR
STARTCHAR uni1EBD
ENCODING 7869
SWIDTH 456 0
DWIDTH 5 0
BBX 5 9 0 0
BITMAP
78
00
70
58
C8
F8
C0
58
70
ENDCHAR
STARTCHAR uni1EBE
ENCODING 7870
SWIDTH 547 0
DWIDTH 7 0
BBX 5 13 1 0
BITMAP
70
00
70
00
F8
80
80
80
F0
80
80
80
F8
ENDCHAR
STARTCHAR uni1EBF
ENCODING 7871
SWIDTH 456 0
DWIDTH 5 0
BBX 5 12 0 0
BITMAP
10
20
00
30
50
70
58
C8
F8
C0
58
70
ENDCHAR
STARTCHAR uni1EC0
ENCODING 7872
SWIDTH 547 0
DWIDTH 7 0
BBX 5 13 1 0
BITMAP
60
00
70
00
F8
80
80
80
F0
80
80
80
F8
ENDCHAR
STARTCHAR uni1EC1
ENCODING 7873
SWIDTH 456 0
DWIDTH 5 0
BBX 5 11 0 0
BITMAP
70
00
30
50
70
58
C8
F8
C0
58
70
ENDCHAR
STARTCHAR uni1EC2
ENCODING 7874
SWIDTH 547 0
DWIDTH 7 0
BBX 5 14 1 0
BITMAP
20
30
20
70
00
F8
80
80
80
F0
80
80
80
F8
ENDCHAR
STARTCHAR uni1EC3
ENCODING 7875
SWIDTH 456 0
DWIDTH 5 0
BBX 5 12 0 0
BITMAP
30
30
00
30
50
70
58
C8
F8
C0
58
70
ENDCHAR
STARTCHAR uni1EC4
ENCODING 7876
SWIDTH 547 0
DWIDTH 7 0
BBX 5 13 1 0
BITMAP
70
00
70
00
F8
80
80
80
F0
80
80
80
F8
ENDCHAR
STARTCHAR uni1EC5
ENCODING 7877
SWIDTH 456 0
DWIDTH 5 0
BBX 5 12 0 0
BITMAP
68
50
00
30
50
70
58
C8
F8
C0
58
70
ENDCHAR
STARTCHAR uni1EC6
ENCODING 7878
SWIDTH 547 0
DWIDTH 7 0
BBX 5 13 1 -2
BITMAP
70
00
F8
80
80
80
F0
80
80
80
F8
00
20
ENDCHAR
STARTCHAR uni1EC7
ENCODING 7879
SWIDTH 456 0
DWIDTH 5 0
BBX 5 11 0 -2
BITMAP
30
50
70
58
C8
F8
C0
58
70
00
20
ENDCHAR
STARTCHAR uni1EC8
ENCODING 7880
SWIDTH 228 0
DWIDTH 3 0
BBX 2 12 1 0
BITMAP
C0
80
00
80
80
80
80
80
80
80
80
80
ENDCHAR
STARTCHAR uni1EC9
ENCODING 7881
SWIDTH 228 0
DWIDTH 3 0
BBX 2 9 1 0
BITMAP
C0
80
80
80
80
80
80
80
80
ENDCHAR
STARTCHAR uni1ECA
ENCODING 7882
SWIDTH 228 0
DWIDTH 3 0
BBX 1 11 1 -2
BITMAP
80
80
80
80
80
80
80
80
80
00
80
ENDCHAR
STARTCHAR uni1ECB
ENCODING 7883
SWIDTH 228 0
DWIDTH 3 0
BBX 1 11 1 -2
BITMAP
80
00
80
80
80
80
80
80
80
00
80
ENDCHAR
STARTCHAR uni1ECC
ENCODING 7884
SWIDTH 638 0
DWIDTH 8 0
BBX 7 11 0 -2
BITMAP
3C
66
46
C2
C2
C2
46
66
3C
00
18
ENDCHAR
STARTCHAR uni1ECD
ENCODING 7885
SWIDTH 501 0
DWIDTH 6 0
BBX 6 9 0 -2
BITMAP
78
48
48
CC
48
48
78
00
30
ENDCHAR
STARTCHAR uni1ECE
ENCODING 7886
SWIDTH 638 0
DWIDTH 8 0
BBX 7 12 0 0
BITMAP
18
18
00
3C
66
46
C2
C2
C2
46
66
3C
ENDCHAR
STARTCHAR uni1ECF
ENCODING 7887
SWIDTH 501 0
DWIDTH 6 0
BBX 6 9 0 0
BITMAP
30
00
78
48
48
CC
48
48
78
ENDCHAR
STARTCHAR uni1ED0
ENCODING 7888
SWIDTH 638 0
DWIDTH 8 0
BBX 7 13 0 0
BITMAP
18
00
38
00
3C
66
46
C2
C2
C2
46
66
3C
ENDCHAR
STARTCHAR uni1ED1
ENCODING 7889
SWIDTH 501 0
DWIDTH 6 0
BBX 6 12 0 0
BITMAP
18
30
00
30
30
78
48
48
CC
48
48
78
ENDCHAR
STARTCHAR uni1ED2
ENCODING 7890
SWIDTH 638 0
DWIDTH 8 0
BBX 7 13 0 0
BITMAP
38
00
38
00
3C
66
46
C2
C2
C2
46
66
3C
ENDCHAR
STARTCHAR uni1ED3
ENCODING 7891
SWIDTH 501 0
DWIDTH 6 0
BBX 6 11 0 0
BITMAP
70
00
30
30
78
48
48
CC
48
48
78
ENDCHAR
STARTCHAR uni1ED4
ENCODING 7892
SWIDTH 638 0
DWIDTH 8 0
BBX 7 14 0 0
BITMAP
18
08
10
38
00
3C
66
46
C2
C2
C2
46
66
3C
ENDCHAR
STARTCHAR uni1ED5
ENCODING 7893
SWIDTH 501 0
DWIDTH 6 0
BBX 6 12 0 0
BITMAP
30
10
00
30
30
78
48
48
CC
48
48
78
ENDCHAR
STARTCHAR uni1ED6
ENCODING 7894
SWIDTH 638 0
DWIDTH 8 0
BBX 7 13 0 0
BITMAP
3C
00
38
00
3C
66
46
C2
C2
C2
46
66
3C
ENDCHAR
STARTCHAR uni1ED7
ENCODING 7895
SWIDTH 501 0
DWIDTH 6 0
BBX 6 12 0 0
BITMAP
68
58
00
30
30
78
48
48
CC
48
48
78
ENDCHAR
STARTCHAR uni1ED8
ENCODING 7896
SWIDTH 638 0
DWIDTH 8 0
BBX 7 13 0 -2
BITMAP
38
00
3C
66
46
C2
C2
C2
46
66
3C
00
18
ENDCHAR
STARTCHAR uni1ED9
ENCODING 7897
SWIDTH 501 0
DWIDTH 6 0
BBX 6 11 0 -2
BITMAP
30
30
78
48
48
CC
48
48
78
00
30
ENDCHAR
STARTCHAR uni1EDA
ENCODING 7898
SWIDTH 638 0
DWIDTH 8 0
BBX 7 11 0 0
BITMAP
1A
02
3E
66
46
C2
C2
C2
46
66
3C
ENDCHAR
STARTCHAR uni1EDB
ENCODING 7899
SWIDTH 501 0
DWIDTH 6 0
BBX 6 9 0 0
BITMAP
38
04
78
48
48
CC
48
48
78
ENDCHAR
STARTCHAR uni1EDC
ENCODING 7900
SWIDTH 638 0
DWIDTH 8 0
BBX 7 11 0 0
BITMAP
3A
02
3E
66
46
C2
C2
C2
46
66
3C
ENDCHAR
STARTCHAR uni1EDD
ENCODING 7901
SWIDTH 501 0
DWIDTH 6 0
BBX 6 9 0 0
BITMAP
70
04
78
48
48
CC
48
48
78
ENDCHAR
STARTCHAR uni1EDE
ENCODING 7902
SWIDTH 638 0
DWIDTH 8 0
BBX 7 12 0 0
BITMAP
18
1A
02
3E
66
46
C2
C2
C2
46
66
3C
ENDCHAR
STARTCHAR uni1EDF
ENCODING 7903
SWIDTH 501 0
DWIDTH 6 0
BBX 6 9 0 0
BITMAP
34
04
78
48
48
CC
48
48
78
ENDCHAR
STARTCHAR uni1EE0
ENCODING 7904
SWIDTH 638 0
DWIDTH 8 0
BBX 7 11 0 0
BITMAP
3E
02
3E
66
46
C2
C2
C2
46
66
3C
ENDCHAR
STARTCHAR uni1EE1
ENCODING 7905
SWIDTH 501 0
DWIDTH 6 0
BBX 6 9 0 0
BITMAP
78
04
78
48
48
CC
48
48
78
ENDCHAR
STARTCHAR uni1EE2
ENCODING 7906
SWIDTH 638 0
DWIDTH 8 0
BBX 7 13 0 -2
BITMAP
02
02
3E
66
46
C2
C2
C2
46
66
3C
00
18
ENDCHAR
STARTCHAR uni1EE3
ENCODING 7907
SWIDTH 501 0
DWIDTH 6 0
BBX 6 11 0 -2
BITMAP
04
04
78
48
48
CC
48
48
78
00
30
ENDCHAR
STARTCHAR uni1EE4
ENCODING 7908
SWIDTH 592 0
DWIDTH 7 0
BBX 5 11 1 -2
BITMAP
88
88
88
88
88
88
88
C8
70
00
20
ENDCHAR
STARTCHAR uni1EE5
ENCODING 7909
SWIDTH 501 0
DWIDTH 6 0
BBX 4 9 1 -2
BITMAP
90
90
90
90
90
90
F0
00
60
ENDCHAR
STARTCHAR uni1EE6
ENCODING 7910
SWIDTH 592 0
DWIDTH 7 0
BBX 5 12 1 0
BITMAP
30
30
00
88
88
88
88
88
88
88
C8
70
ENDCHAR
STARTCHAR uni1EE7
ENCODING 7911
SWIDTH 501 0
DWIDTH 6 0
BBX 4 9 1 0
BITMAP
60
20
90
90
90
90
90
90
F0
ENDCHAR
STARTCHAR uni1EE8
ENCODING 7912
SWIDTH 592 0
DWIDTH 7 0
BBX 7 11 1 0
BITMAP
36
06
8C
88
88
88
88
88
88
C8
70
ENDCHAR
STARTCHAR uni1EE9
ENCODING 7913
SWIDTH 501 0
DWIDTH 6 0
BBX 6 9 1 0
BITMAP
70
04
98
90
90
90
90
90
F0
ENDCHAR
STARTCHAR uni1EEA
ENCODING 7914
SWIDTH 592 0
DWIDTH 7 0
BBX 7 11 1 0
BITMAP
66
06
8C
88
88
88
88
88
88
C8
70
ENDCHAR
STARTCHAR uni1EEB
ENCODING 7915
SWIDTH 501 0
DWIDTH 6 0
BBX 6 9 1 0
BITMAP
E0
04
98
90
90
90
90
90
F0
ENDCHAR
STARTCHAR uni1EEC
ENCODING 7916
SWIDTH 592 0
DWIDTH 7 0
BBX 7 12 1 0
BITMAP
30
36
06
8C
88
88
88
88
88
88
C8
70
ENDCHAR
STARTCHAR uni1EED
ENCODING 7917
SWIDTH 501 0
DWIDTH 6 0
BBX 6 9 1 0
BITMAP
60
24
98
90
90
90
90
90
F0
ENDCHAR
STARTCHAR uni1EEE
ENCODING 7918
SWIDTH 592 0
DWIDTH 7 0
BBX 7 11 1 0
BITMAP
76
06
8C
88
88
88
88
88
88
C8
70
ENDCHAR
STARTCHAR uni1EEF
ENCODING 7919
SWIDTH 501 0
DWIDTH 6 0
BBX 6 9 1 0
BITMAP
F0
04
98
90
90
90
90
90
F0
ENDCHAR
STARTCHAR uni1EF0
ENCODING 7920
SWIDTH 592 0
DWIDTH 7 0
BBX 7 13 1 -2
BITMAP
06
06
8C
88
88
88
88
88
88
C8
70
00
20
ENDCHAR
STARTCHAR uni1EF1
ENCODING 7921
SWIDTH 501 0
DWIDTH 6 0
BBX 6 11 1 -2
BITMAP
04
04
98
90
90
90
90
90
F0
00
60
ENDCHAR
STARTCHAR Ygrave
ENCODING 7922
SWIDTH 547 0
DWIDTH 7 0
BBX 7 11 0 0
BITMAP
30
00
C6
4C
68
28
38
30
10
10
10
ENDCHAR
STARTCHAR ygrave
ENCODING 7923
SWIDTH 456 0
DWIDTH 5 0
BBX 5 11 0 -2
BITMAP
70
00
C8
C8
58
70
70
30
30
20
60
ENDCHAR
STARTCHAR uni1EF4
ENCODING 7924
SWIDTH 547 0
DWIDTH 7 0
BBX 7 11 0 -2
BITMAP
C6
4C
68
28
38
30
10
10
10
00
10
ENDCHAR
STARTCHAR uni1EF5
ENCODING 7925
SWIDTH 456 0
DWIDTH 5 0
BBX 5 9 0 -2
BITMAP
C8
C8
58
70
70
30
30
20
68
ENDCHAR
STARTCHAR uni1EF6
ENCODING 7926
SWIDTH 547 0
DWIDTH 7 0
BBX 7 12 0 0
BITMAP
30
10
00
C6
4C
68
28
38
30
10
10
10
ENDCHAR
STARTCHAR uni1EF7
ENCODING 7927
SWIDTH 456 0
DWIDTH 5 0
BBX 5 11 0 -2
BITMAP
30
00
C8
C8
58
70
70
30
30
20
60
ENDCHAR
STARTCHAR uni1EF8
ENCODING 7928
SWIDTH 547 0
DWIDTH 7 0
BBX 7 11 0 0
BITMAP
78
00
C6
4C
68
28
38
30
10
10
10
ENDCHAR
STARTCHAR uni1EF9
ENCODING 7929
SWIDTH 456 0
DWIDTH 5 0
BBX 5 11 0 -2
BITMAP
78
00
C8
C8
58
70
70
30
30
20
60
ENDCHAR
STARTCHAR uni2002
ENCODING 8194
SWIDTH 600 0
DWIDTH 7 0
BBX 1 1 0 0
BITMAP
00
ENDCHAR
STARTCHAR uni2003
ENCODING 8195
SWIDTH 1000 0
DWIDTH 12 0
BBX 1 1 0 0
BITMAP
00
ENDCHAR
STARTCHAR uni2004
ENCODING 8196
SWIDTH 333 0
DWIDTH 4 0
BBX 1 1 0 0
BITMAP
00
ENDCHAR
STARTCHAR uni2005
ENCODING 8197
SWIDTH 250 0
DWIDTH 3 0
BBX 1 1 0 0
BITMAP
00
ENDCHAR
STARTCHAR uni2009
ENCODING 8201
SWIDTH 128 0
DWIDTH 2 0
BBX 1 1 0 0
BITMAP
00
ENDCHAR
STARTCHAR uni2010
ENCODING 8208
SWIDTH 273 0
DWIDTH 3 0
BBX 3 1 0 3
BITMAP
E0
ENDCHAR
STARTCHAR uni2011
ENCODING 8209
SWIDTH 273 0
DWIDTH 3 0
BBX 3 1 0 3
BITMAP
E0
ENDCHAR
STARTCHAR endash
ENCODING 8211
SWIDTH 456 0
DWIDTH 5 0
BBX 5 1 0 3
BITMAP
F8
ENDCHAR
STARTCHAR emdash
ENCODING 8212
SWIDTH 820 0
DWIDTH 10 0
BBX 10 1 0 3
BITMAP
FFC0
ENDCHAR
STARTCHAR uni2015
ENCODING 8213
SWIDTH 820 0
DWIDTH 10 0
BBX 8 1 1 3
BITMAP
FF
ENDCHAR
STARTCHAR underscoredbl
ENCODING 8215
SWIDTH 500 0
DWIDTH 6 0
BBX 6 3 0 -3
BITMAP
FC
00
FC
ENDCHAR
STARTCHAR quoteleft
ENCODING 8216
SWIDTH 228 0
DWIDTH 3 0
BBX 1 4 1 5
BITMAP
80
80
80
80
ENDCHAR
STARTCHAR quoteright
ENCODING 8217
SWIDTH 228 0
DWIDTH 3 0
BBX 1 4 1 5
BITMAP
80
80
80
80
ENDCHAR
STARTCHAR quotesinglbase
ENCODING 8218
SWIDTH 228 0
DWIDTH 3 0
BBX 1 4 1 -2
BITMAP
80
80
80
80
ENDCHAR
STARTCHAR quotereversed
ENCODING 8219
SWIDTH 228 0
DWIDTH 3 0
BBX 1 4 1 5
BITMAP
80
80
80
80
ENDCHAR
STARTCHAR quotedblleft
ENCODING 8220
SWIDTH 410 0
DWIDTH 5 0
BBX 3 4 1 5
BITMAP
A0
A0
A0
A0
ENDCHAR
STARTCHAR quotedblright
ENCODING 8221
SWIDTH 410 0
DWIDTH 5 0
BBX 3 4 1 5
BITMAP
A0
A0
A0
A0
ENDCHAR
STARTCHAR quotedblbase
ENCODING 8222
SWIDTH 410 0
DWIDTH 5 0
BBX 3 4 1 -2
BITMAP
A0
A0
A0
A0
ENDCHAR
STARTCHAR dagger
ENCODING 8224
SWIDTH 456 0
DWIDTH 5 0
BBX 5 11 0 -2
BITMAP
20
20
F8
A8
20
20
20
20
20
20
20
ENDCHAR
STARTCHAR daggerdbl
ENCODING 8225
SWIDTH 456 0
DWIDTH 5 0
BBX 5 11 0 -2
BITMAP
20
20
F8
A8
20
20
20
A8
F8
20
20
ENDCHAR
STARTCHAR bullet
ENCODING 8226
SWIDTH 287 0
DWIDTH 3 0
BBX 3 3 0 3
BITMAP
60
E0
60
ENDCHAR
STARTCHAR ellipsis
ENCODING 8230
SWIDTH 820 0
DWIDTH 10 0
BBX 8 2 1 0
BITMAP
9B
9B
ENDCHAR
STARTCHAR perthousand
ENCODING 8240
SWIDTH 820 0
DWIDTH 10 0
BBX 10 9 0 0
BITMAP
E800
A800
B000
B000
FD80
2F40
2B40
2F40
2D80
ENDCHAR
STARTCHAR minute
ENCODING 8242
SWIDTH 195 0
DWIDTH 2 0
BBX 2 2 0 7
BITMAP
40
80
ENDCHAR
STARTCHAR second
ENCODING 8243
SWIDTH 389 0
DWIDTH 5 0
BBX 4 2 0 7
BITMAP
70
A0
ENDCHAR
STARTCHAR guilsinglleft
ENCODING 8249
SWIDTH 273 0
DWIDTH 3 0
BBX 3 5 0 2
BITMAP
20
40
C0
40
20
ENDCHAR
STARTCHAR guilsinglright
ENCODING 8250
SWIDTH 273 0
DWIDTH 3 0
BBX 3 5 0 2
BITMAP
C0
40
20
40
C0
ENDCHAR
STARTCHAR exclamdbl
ENCODING 8252
SWIDTH 546 0
DWIDTH 7 0
BBX 5 9 1 0
BITMAP
D8
98
98
98
98
90
00
98
98
ENDCHAR
STARTCHAR uni203E
ENCODING 8254
SWIDTH 500 0
DWIDTH 6 0
BBX 6 1 0 10
BITMAP
FC
ENDCHAR
STARTCHAR fraction
ENCODING 8260
SWIDTH 137 0
DWIDTH 2 0
BBX 6 9 -2 0
BITMAP
04
08
10
10
20
20
40
40
80
ENDCHAR
STARTCHAR uni2052
ENCODING 8274
SWIDTH 600 0
DWIDTH 7 0
BBX 5 9 1 0
BITMAP
88
88
10
10
20
20
40
48
88
ENDCHAR
STARTCHAR uni2070
ENCODING 8304
SWIDTH 273 0
DWIDTH 3 0
BBX 3 4 0 5
BITMAP
60
A0
A0
60
ENDCHAR
STARTCHAR uni2074
ENCODING 8308
SWIDTH 273 0
DWIDTH 3 0
BBX 3 4 0 5
BITMAP
60
A0
E0
20
ENDCHAR
STARTCHAR uni2075
ENCODING 8309
SWIDTH 273 0
DWIDTH 3 0
BBX 3 4 0 5
BITMAP
60
E0
A0
60
ENDCHAR
STARTCHAR uni2076
ENCODING 8310
SWIDTH 273 0
DWIDTH 3 0
BBX 3 4 0 5
BITMAP
60
E0
A0
60
ENDCHAR
STARTCHAR uni2077
ENCODING 8311
SWIDTH 273 0
DWIDTH 3 0
BBX 3 4 0 5
BITMAP
E0
20
40
40
ENDCHAR
STARTCHAR uni2078
ENCODING 8312
SWIDTH 273 0
DWIDTH 3 0
BBX 3 4 0 5
BITMAP
E0
40
A0
60
ENDCHAR
STARTCHAR uni2079
ENCODING 8313
SWIDTH 273 0
DWIDTH 3 0
BBX 3 4 0 5
BITMAP
E0
E0
A0
60
ENDCHAR
STARTCHAR uni207F
ENCODING 8319
SWIDTH 325 0
DWIDTH 4 0
BBX 4 4 0 4
BITMAP
E0
B0
B0
B0
ENDCHAR
STARTCHAR uni2080
ENCODING 8320
SWIDTH 273 0
DWIDTH 3 0
BBX 3 5 0 -2
BITMAP
60
A0
A0
A0
60
ENDCHAR
STARTCHAR uni2081
ENCODING 8321
SWIDTH 273 0
DWIDTH 3 0
BBX 3 4 0 -2
BITMAP
C0
40
40
E0
ENDCHAR
STARTCHAR uni2082
ENCODING 8322
SWIDTH 273 0
DWIDTH 3 0
BBX 3 4 0 -2
BITMAP
60
A0
40
E0
ENDCHAR
STARTCHAR uni2083
ENCODING 8323
SWIDTH 273 0
DWIDTH 3 0
BBX 3 5 0 -2
BITMAP
60
A0
40
A0
60
ENDCHAR
STARTCHAR uni2084
ENCODING 8324
SWIDTH 273 0
DWIDTH 3 0
BBX 3 5 0 -2
BITMAP
40
60
A0
E0
20
ENDCHAR
STARTCHAR uni2085
ENCODING 8325
SWIDTH 273 0
DWIDTH 3 0
BBX 3 4 0 -2
BITMAP
60
E0
A0
60
ENDCHAR
STARTCHAR uni2086
ENCODING 8326
SWIDTH 273 0
DWIDTH 3 0
BBX 3 5 0 -2
BITMAP
60
A0
E0
A0
60
ENDCHAR
STARTCHAR uni2087
ENCODING 8327
SWIDTH 273 0
DWIDTH 3 0
BBX 3 4 0 -2
BITMAP
E0
20
40
40
ENDCHAR
STARTCHAR uni2088
ENCODING 8328
SWIDTH 273 0
DWIDTH 3 0
BBX 3 5 0 -2
BITMAP
60
A0
40
A0
60
ENDCHAR
STARTCHAR uni2089
ENCODING 8329
SWIDTH 273 0
DWIDTH 3 0
BBX 3 5 0 -2
BITMAP
60
A0
60
A0
60
ENDCHAR
STARTCHAR uni2099
ENCODING 8345
SWIDTH 325 0
DWIDTH 4 0
BBX 4 4 0 -1
BITMAP
E0
B0
B0
B0
ENDCHAR
STARTCHAR colonmonetary
ENCODING 8353
SWIDTH 592 0
DWIDTH 7 0
BBX 7 11 0 -1
BITMAP
14
38
7C
5C
DE
D8
E8
76
74
3C
30
ENDCHAR
STARTCHAR franc
ENCODING 8355
SWIDTH 504 0
DWIDTH 6 0
BBX 6 9 0 0
BITMAP
7C
40
40
40
78
40
40
F0
40
ENDCHAR
STARTCHAR lira
ENCODING 8356
SWIDTH 456 0
DWIDTH 5 0
BBX 5 9 0 0
BITMAP
78
48
40
F0
40
F0
40
40
F8
ENDCHAR
STARTCHAR uni20A6
ENCODING 8358
SWIDTH 592 0
DWIDTH 7 0
BBX 7 9 0 0
BITMAP
44
64
64
F6
54
DE
4C
4C
44
ENDCHAR
STARTCHAR peseta
ENCODING 8359
SWIDTH 547 0
DWIDTH 7 0
BBX 7 9 0 0
BITMAP
78
4C
FE
4C
48
78
40
40
40
ENDCHAR
STARTCHAR uni20A9
ENCODING 8361
SWIDTH 714 0
DWIDTH 9 0
BBX 9 9 0 0
BITMAP
D980
D900
DD00
5D00
FF80
5700
7600
6600
2600
ENDCHAR
STARTCHAR dong
ENCODING 8363
SWIDTH 501 0
DWIDTH 6 0
BBX 6 10 0 -1
BITMAP
08
3C
08
78
48
C8
48
48
78
F8
ENDCHAR
STARTCHAR Euro
ENCODING 8364
SWIDTH 456 0
DWIDTH 5 0
BBX 5 9 0 0
BITMAP
38
60
40
F0
40
F0
40
60
38
ENDCHAR
STARTCHAR uni20AD
ENCODING 8365
SWIDTH 592 0
DWIDTH 7 0
BBX 7 9 0 0
BITMAP
46
4C
48
58
FE
58
48
4C
46
ENDCHAR
STARTCHAR uni20B1
ENCODING 8369
SWIDTH 547 0
DWIDTH 7 0
BBX 7 9 0 0
BITMAP
78
4C
CE
CE
4C
78
40
40
40
ENDCHAR
STARTCHAR uni20B2
ENCODING 8370
SWIDTH 638 0
DWIDTH 8 0
BBX 7 12 0 -2
BITMAP
10
3C
76
52
50
CE
52
56
76
3A
10
10
ENDCHAR
STARTCHAR uni20B5
ENCODING 8373
SWIDTH 592 0
DWIDTH 7 0
BBX 7 12 0 -1
BITMAP
08
08
38
6C
56
D0
D0
D0
56
64
38
20
ENDCHAR
STARTCHAR uni20B9
ENCODING 8377
SWIDTH 580 0
DWIDTH 7 0
BBX 5 8 1 0
BITMAP
F8
F8
10
F0
C0
60
20
30
ENDCHAR
STARTCHAR uni20BA
ENCODING 8378
SWIDTH 501 0
DWIDTH 6 0
BBX 6 9 0 0
BITMAP
40
40
70
E0
D0
EC
CC
48
70
ENDCHAR
STARTCHAR uni20BC
ENCODING 8380
SWIDTH 600 0
DWIDTH 7 0
BBX 6 10 1 0
BITMAP
20
70
F8
AC
AC
AC
AC
AC
AC
8C
ENDCHAR
STARTCHAR uni20BD
ENCODING 8381
SWIDTH 547 0
DWIDTH 7 0
BBX 6 9 0 0
BITMAP
78
44
44
44
F8
40
40
F0
40
ENDCHAR
STARTCHAR uni2105
ENCODING 8453
SWIDTH 790 0
DWIDTH 9 0
BBX 9 9 0 0
BITMAP
6200
5200
C400
5400
6B00
1480
1480
2480
2300
ENDCHAR
STARTCHAR uni2113
ENCODING 8467
SWIDTH 490 0
DWIDTH 6 0
BBX 4 9 1 0
BITMAP
70
D0
D0
F0
E0
C0
C0
C0
70
ENDCHAR
STARTCHAR uni2116
ENCODING 8470
SWIDTH 914 0
DWIDTH 11 0
BBX 9 9 1 0
BITMAP
8980
CA80
CA80
EA80
A980
B800
9B80
9800
8800
ENDCHAR
STARTCHAR uni2117
ENCODING 8471
SWIDTH 604 0
DWIDTH 7 0
BBX 7 9 0 0
BITMAP
38
44
BA
AA
BA
A2
A2
44
38
ENDCHAR
STARTCHAR trademark
ENCODING 8482
SWIDTH 820 0
DWIDTH 10 0
BBX 8 5 1 3
BITMAP
EB
4B
4B
4D
4D
ENDCHAR
STARTCHAR uni2126
ENCODING 8486
SWIDTH 768 0
DWIDTH 9 0
BBX 7 8 1 0
BITMAP
38
44
C6
C6
C6
C6
44
EE
ENDCHAR
STARTCHAR estimated
ENCODING 8494
SWIDTH 600 0
DWIDTH 7 0
BBX 6 7 1 0
BITMAP
70
88
8C
FC
80
88
70
ENDCHAR
STARTCHAR oneeighth
ENCODING 8539
SWIDTH 683 0
DWIDTH 8 0
BBX 8 9 0 0
BITMAP
C2
44
44
48
EB
15
12
25
67
ENDCHAR
STARTCHAR threeeighths
ENCODING 8540
SWIDTH 683 0
DWIDTH 8 0
BBX 8 9 0 0
BITMAP
62
A4
44
A8
6B
15
12
25
67
ENDCHAR
STARTCHAR fiveeighths
ENCODING 8541
SWIDTH 683 0
DWIDTH 8 0
BBX 8 9 0 0
BITMAP
62
E4
24
A8
6B
15
12
25
67
ENDCHAR
STARTCHAR seveneighths
ENCODING 8542
SWIDTH 683 0
DWIDTH 8 0
BBX 8 9 0 0
BITMAP
E2
24
44
48
4B
15
12
25
67
ENDCHAR
STARTCHAR arrowleft
ENCODING 8592
SWIDTH 1000 0
DWIDTH 12 0
BBX 12 4 0 1
BITMAP
2000
FFF0
6000
2000
ENDCHAR
STARTCHAR arrowup
ENCODING 8593
SWIDTH 500 0
DWIDTH 6 0
BBX 4 11 1 -2
BITMAP
60
60
F0
60
60
60
60
60
60
60
60
ENDCHAR
STARTCHAR arrowright
ENCODING 8594
SWIDTH 1000 0
DWIDTH 12 0
BBX 12 4 0 1
BITMAP
0040
FFF0
0060
0040
ENDCHAR
STARTCHAR arrowdown
ENCODING 8595
SWIDTH 500 0
DWIDTH 6 0
BBX 4 11 1 -2
BITMAP
60
60
60
60
60
60
60
60
F0
60
60
ENDCHAR
STARTCHAR arrowboth
ENCODING 8596
SWIDTH 1000 0
DWIDTH 12 0
BBX 12 4 0 2
BITMAP
2040
6060
FFF0
2040
ENDCHAR
STARTCHAR arrowupdn
ENCODING 8597
SWIDTH 500 0
DWIDTH 6 0
BBX 4 11 1 -2
BITMAP
60
60
F0
60
60
60
60
60
F0
60
60
ENDCHAR
STARTCHAR arrowupdnbse
ENCODING 8616
SWIDTH 500 0
DWIDTH 6 0
BBX 4 12 1 -3
BITMAP
40
60
F0
F0
60
60
60
F0
F0
60
40
F0
ENDCHAR
STARTCHAR partialdiff
ENCODING 8706
SWIDTH 494 0
DWIDTH 6 0
BBX 5 9 0 0
BITMAP
70
58
08
08
78
48
C8
58
70
ENDCHAR
STARTCHAR emptyset
ENCODING 8709
SWIDTH 456 0
DWIDTH 5 0
BBX 5 6 0 1
BITMAP
78
48
98
A8
48
F0
ENDCHAR
STARTCHAR uni2206
ENCODING 8710
SWIDTH 589 0
DWIDTH 7 0
BBX 7 8 0 0
BITMAP
38
38
28
6C
6C
44
C6
FE
ENDCHAR
STARTCHAR product
ENCODING 8719
SWIDTH 823 0
DWIDTH 10 0
BBX 8 11 1 -2
BITMAP
FF
66
66
66
66
66
66
66
66
66
66
ENDCHAR
STARTCHAR summation
ENCODING 8721
SWIDTH 713 0
DWIDTH 9 0
BBX 7 11 1 -2
BITMAP
FE
FE
60
30
18
18
10
20
40
FE
FE
ENDCHAR
STARTCHAR minus
ENCODING 8722
SWIDTH 479 0
DWIDTH 6 0
BBX 5 1 0 3
BITMAP
F8
ENDCHAR
STARTCHAR uni2215
ENCODING 8725
SWIDTH 137 0
DWIDTH 2 0
BBX 6 9 -2 0
BITMAP
04
08
08
10
20
20
40
40
80
ENDCHAR
STARTCHAR uni2219
ENCODING 8729
SWIDTH 273 0
DWIDTH 3 0
BBX 1 2 1 3
BITMAP
80
80
ENDCHAR
STARTCHAR radical
ENCODING 8730
SWIDTH 549 0
DWIDTH 7 0
BBX 7 12 0 -2
BITMAP
02
04
04
04
04
04
E4
24
28
38
18
18
ENDCHAR
STARTCHAR infinity
ENCODING 8734
SWIDTH 713 0
DWIDTH 9 0
BBX 7 4 1 2
BITMAP
EC
B2
B2
EC
ENDCHAR
STARTCHAR orthogonal
ENCODING 8735
SWIDTH 979 0
DWIDTH 12 0
BBX 8 8 2 0
BITMAP
80
80
80
80
80
80
80
FF
ENDCHAR
STARTCHAR intersection
ENCODING 8745
SWIDTH 722 0
DWIDTH 9 0
BBX 7 8 1 0
BITMAP
78
C4
86
86
86
86
86
86
ENDCHAR
STARTCHAR integral
ENCODING 8747
SWIDTH 274 0
DWIDTH 3 0
BBX 3 12 0 -2
BITMAP
60
40
40
40
40
40
40
40
40
60
60
C0
ENDCHAR
STARTCHAR approxequal
ENCODING 8776
SWIDTH 549 0
DWIDTH 7 0
BBX 6 5 0 0
BITMAP
64
FC
9C
FC
FC
ENDCHAR
STARTCHAR notequal
ENCODING 8800
SWIDTH 549 0
DWIDTH 7 0
BBX 5 6 1 0
BITMAP
10
F8
20
20
F8
C0
ENDCHAR
STARTCHAR equivalence
ENCODING 8801
SWIDTH 478 0
DWIDTH 6 0
BBX 5 7 0 0
BITMAP
F8
F8
00
F8
00
00
F8
ENDCHAR
STARTCHAR lessequal
ENCODING 8804
SWIDTH 549 0
DWIDTH 7 0
BBX 5 8 1 0
BITMAP
18
70
C0
C0
70
18
00
F8
ENDCHAR
STARTCHAR greaterequal
ENCODING 8805
SWIDTH 549 0
DWIDTH 7 0
BBX 5 8 1 0
BITMAP
80
E0
38
18
60
80
00
F8
ENDCHAR
STARTCHAR house
ENCODING 8962
SWIDTH 600 0
DWIDTH 7 0
BBX 5 7 1 0
BITMAP
20
70
58
88
88
88
F8
ENDCHAR
STARTCHAR revlogicalnot
ENCODING 8976
SWIDTH 479 0
DWIDTH 6 0
BBX 5 3 0 2
BITMAP
F8
C0
C0
ENDCHAR
STARTCHAR integraltp
ENCODING 8992
SWIDTH 604 0
DWIDTH 7 0
BBX 2 13 3 -3
BITMAP
C0
80
80
80
80
80
80
80
80
80
80
80
80
ENDCHAR
STARTCHAR integralbt
ENCODING 8993
SWIDTH 604 0
DWIDTH 7 0
BBX 2 13 2 -3
BITMAP
40
40
40
40
40
40
40
40
40
40
40
40
C0
ENDCHAR
STARTCHAR lozenge
ENCODING 9674
SWIDTH 494 0
DWIDTH 6 0
BBX 6 8 0 0
BITMAP
30
30
58
C8
CC
78
30
30
ENDCHAR
STARTCHAR uni27E8
ENCODING 10216
SWIDTH 273 0
DWIDTH 3 0
BBX 3 11 0 -2
BITMAP
20
20
40
40
40
C0
C0
40
40
60
20
ENDCHAR
STARTCHAR uni27E9
ENCODING 10217
SWIDTH 273 0
DWIDTH 3 0
BBX 3 11 0 -2
BITMAP
80
40
40
40
60
60
60
40
40
40
C0
ENDCHAR
STARTCHAR uniE0FF
ENCODING 57599
SWIDTH 600 0
DWIDTH 7 0
BBX 1 1 0 0
BITMAP
00
ENDCHAR
STARTCHAR uniEFFD
ENCODING 61437
SWIDTH 600 0
DWIDTH 7 0
BBX 1 1 0 0
BITMAP
00
ENDCHAR
STARTCHAR uniF000
ENCODING 61440
SWIDTH 600 0
DWIDTH 7 0
BBX 1 1 0 0
BITMAP
00
ENDCHAR
STARTCHAR uniF6C3
ENCODING 63171
SWIDTH 0 0
DWIDTH 0 0
BBX 1 2 -1 -3
BITMAP
80
80
ENDCHAR
STARTCHAR fi
ENCODING 64257
SWIDTH 501 0
DWIDTH 6 0
BBX 5 9 0 0
BITMAP
68
40
E8
48
48
48
48
48
48
ENDCHAR
STARTCHAR fl
ENCODING 64258
SWIDTH 501 0
DWIDTH 6 0
BBX 5 9 0 0
BITMAP
68
48
E8
48
48
48
48
48
48
ENDCHAR
STARTCHAR uniFEFF
ENCODING 65279
SWIDTH 0 0
DWIDTH 0 0
BBX 1 1 0 0
BITMAP
00
ENDCHAR
STARTCHAR .notdef
ENCODING -1
SWIDTH 500 0
DWIDTH 6 0
BBX 6 8 0 0
BITMAP
FC
CC
B4
B4
B4
CC
84
FC
ENDCHAR
STARTCHAR uni00A40301
ENCODING -1
SWIDTH 684 0
DWIDTH 8 0
BBX 8 11 0 0
BITMAP
E3
00
42
42
42
42
42
42
52
52
5E
ENDCHAR
STARTCHAR Y.loclGUA
ENCODING -1
SWIDTH 540 0
DWIDTH 6 0
BBX 5 9 1 0
BITMAP
98
98
98
98
98
F8
18
98
F0
ENDCHAR
STARTCHAR Yacute.loclGUA
ENCODING -1
SWIDTH 540 0
DWIDTH 6 0
BBX 5 11 1 0
BITMAP
70
00
98
98
98
98
98
F8
18
98
F0
ENDCHAR
STARTCHAR Ycircumflex.loclGUA
ENCODING -1
SWIDTH 540 0
DWIDTH 6 0
BBX 5 11 1 0
BITMAP
70
00
98
98
98
98
98
F8
18
98
F0
ENDCHAR
STARTCHAR Ydieresis.loclGUA
ENCODING -1
SWIDTH 540 0
DWIDTH 6 0
BBX 5 11 1 0
BITMAP
50
00
98
98
98
98
98
F8
18
98
F0
ENDCHAR
STARTCHAR Ygrave.loclGUA
ENCODING -1
SWIDTH 540 0
DWIDTH 6 0
BBX 5 11 1 0
BITMAP
60
00
98
98
98
98
98
F8
18
98
F0
ENDCHAR
STARTCHAR uni0232.loclGUA
ENCODING -1
SWIDTH 540 0
DWIDTH 6 0
BBX 5 11 1 0
BITMAP
70
00
98
98
98
98
98
F8
18
98
F0
ENDCHAR
STARTCHAR uni1EF8.loclGUA
ENCODING -1
SWIDTH 540 0
DWIDTH 6 0
BBX 5 11 1 0
BITMAP
F0
00
98
98
98
98
98
F8
18
98
F0
ENDCHAR
STARTCHAR Cacute.loclPLK
ENCODING -1
SWIDTH 592 0
DWIDTH 7 0
BBX 7 12 0 0
BITMAP
08
18
00
38
64
46
C0
C0
C0
46
64
38
ENDCHAR
STARTCHAR Nacute.loclPLK
ENCODING -1
SWIDTH 592 0
DWIDTH 7 0
BBX 5 12 1 0
BITMAP
30
20
00
88
C8
C8
E8
A8
B8
98
98
88
ENDCHAR
STARTCHAR Oacute.loclPLK
ENCODING -1
SWIDTH 638 0
DWIDTH 8 0
BBX 7 12 0 0
BITMAP
08
18
00
3C
66
46
C2
C2
C2
46
66
3C
ENDCHAR
STARTCHAR Sacute.loclPLK
ENCODING -1
SWIDTH 547 0
DWIDTH 7 0
BBX 6 12 0 0
BITMAP
18
10
00
38
4C
4C
70
7C
1C
CC
4C
78
ENDCHAR
STARTCHAR Zacute.loclPLK
ENCODING -1
SWIDTH 501 0
DWIDTH 6 0
BBX 6 12 0 0
BITMAP
18
30
00
FC
18
18
30
30
20
60
60
FC
ENDCHAR
STARTCHAR i.loclTRK
ENCODING -1
SWIDTH 228 0
DWIDTH 3 0
BBX 1 9 1 0
BITMAP
80
00
80
80
80
80
80
80
80
ENDCHAR
STARTCHAR uni006A0301
ENCODING -1
SWIDTH 456 0
DWIDTH 5 0
BBX 5 11 1 -2
BITMAP
F8
00
B0
B0
B0
B0
B0
B0
B0
30
60
ENDCHAR
STARTCHAR y.loclGUA
ENCODING -1
SWIDTH 501 0
DWIDTH 6 0
BBX 4 9 1 -2
BITMAP
90
90
90
90
90
90
F0
90
E0
ENDCHAR
STARTCHAR yacute.loclGUA
ENCODING -1
SWIDTH 501 0
DWIDTH 6 0
BBX 4 11 1 -2
BITMAP
70
00
90
90
90
90
90
90
F0
90
E0
ENDCHAR
STARTCHAR ycircumflex.loclGUA
ENCODING -1
SWIDTH 501 0
DWIDTH 6 0
BBX 4 11 1 -2
BITMAP
60
60
90
90
90
90
90
90
F0
90
E0
ENDCHAR
STARTCHAR ydieresis.loclGUA
ENCODING -1
SWIDTH 501 0
DWIDTH 6 0
BBX 4 11 1 -2
BITMAP
F0
00
90
90
90
90
90
90
F0
90
E0
ENDCHAR
STARTCHAR ygrave.loclGUA
ENCODING -1
SWIDTH 501 0
DWIDTH 6 0
BBX 4 11 1 -2
BITMAP
E0
00
90
90
90
90
90
90
F0
90
E0
ENDCHAR
STARTCHAR uni0233.loclGUA
ENCODING -1
SWIDTH 501 0
DWIDTH 6 0
BBX 4 11 1 -2
BITMAP
F0
00
90
90
90
90
90
90
F0
90
E0
ENDCHAR
STARTCHAR uni1EF9.loclGUA
ENCODING -1
SWIDTH 501 0
DWIDTH 6 0
BBX 4 11 1 -2
BITMAP
F0
00
90
90
90
90
90
90
F0
90
E0
ENDCHAR
STARTCHAR cacute.loclPLK
ENCODING -1
SWIDTH 456 0
DWIDTH 5 0
BBX 5 10 0 0
BITMAP
10
30
00
70
58
48
C0
48
58
70
ENDCHAR
STARTCHAR nacute.loclPLK
ENCODING -1
SWIDTH 501 0
DWIDTH 6 0
BBX 4 10 1 0
BITMAP
30
60
00
F0
90
90
90
90
90
90
ENDCHAR
STARTCHAR oacute.loclPLK
ENCODING -1
SWIDTH 501 0
DWIDTH 6 0
BBX 6 10 0 0
BITMAP
18
30
00
78
48
48
CC
48
48
78
ENDCHAR
STARTCHAR sacute.loclPLK
ENCODING -1
SWIDTH 456 0
DWIDTH 5 0
BBX 5 10 0 0
BITMAP
10
30
00
70
58
E0
78
18
C8
70
ENDCHAR
STARTCHAR zacute.loclPLK
ENCODING -1
SWIDTH 410 0
DWIDTH 5 0
BBX 5 10 0 0
BITMAP
30
20
00
F8
30
30
20
60
40
F8
ENDCHAR
STARTCHAR f_f
ENCODING -1
SWIDTH 546 0
DWIDTH 7 0
BBX 7 9 0 0
BITMAP
6E
48
FE
48
48
48
48
48
48
ENDCHAR
STARTCHAR f_f_i
ENCODING -1
SWIDTH 774 0
DWIDTH 9 0
BBX 9 9 0 0
BITMAP
6F80
4800
FF80
4980
4980
4980
4980
4980
4980
ENDCHAR
STARTCHAR f_f_l
ENCODING -1
SWIDTH 774 0
DWIDTH 9 0
BBX 9 9 0 0
BITMAP
6F80
4980
FF80
4980
4980
4980
4980
4980
4980
ENDCHAR
STARTCHAR zero.lf
ENCODING -1
SWIDTH 456 0
DWIDTH 5 0
BBX 5 9 0 0
BITMAP
70
58
C8
C8
C8
C8
C8
58
70
ENDCHAR
STARTCHAR one.lf
ENCODING -1
SWIDTH 456 0
DWIDTH 5 0
BBX 5 9 0 0
BITMAP
30
F0
30
30
30
30
30
30
F8
ENDCHAR
STARTCHAR two.lf
ENCODING -1
SWIDTH 456 0
DWIDTH 5 0
BBX 5 9 0 0
BITMAP
70
58
C8
18
18
30
60
40
F8
ENDCHAR
STARTCHAR three.lf
ENCODING -1
SWIDTH 456 0
DWIDTH 5 0
BBX 5 9 0 0
BITMAP
70
58
D8
18
30
18
C8
D8
70
ENDCHAR
STARTCHAR four.lf
ENCODING -1
SWIDTH 456 0
DWIDTH 5 0
BBX 5 9 0 0
BITMAP
30
28
78
78
58
D8
F8
18
18
ENDCHAR
STARTCHAR five.lf
ENCODING -1
SWIDTH 456 0
DWIDTH 5 0
BBX 5 9 0 0
BITMAP
78
40
40
70
58
08
C8
58
70
ENDCHAR
STARTCHAR six.lf
ENCODING -1
SWIDTH 456 0
DWIDTH 5 0
BBX 5 9 0 0
BITMAP
70
58
40
F0
D8
C8
C8
58
70
ENDCHAR
STARTCHAR seven.lf
ENCODING -1
SWIDTH 456 0
DWIDTH 5 0
BBX 5 9 0 0
BITMAP
F8
18
10
30
20
20
60
60
60
ENDCHAR
STARTCHAR eight.lf
ENCODING -1
SWIDTH 456 0
DWIDTH 5 0
BBX 5 9 0 0
BITMAP
70
58
58
58
70
58
C8
D8
70
ENDCHAR
STARTCHAR nine.lf
ENCODING -1
SWIDTH 456 0
DWIDTH 5 0
BBX 5 9 0 0
BITMAP
70
58
C8
D8
78
08
48
58
70
ENDCHAR
STARTCHAR zero.lf.zero
ENCODING -1
SWIDTH 456 0
DWIDTH 5 0
BBX 5 9 0 0
BITMAP
70
58
D8
E8
E8
E8
E8
58
70
ENDCHAR
STARTCHAR zero.osf
ENCODING -1
SWIDTH 456 0
DWIDTH 5 0
BBX 4 8 1 0
BITMAP
E0
B0
B0
B0
B0
B0
B0
E0
ENDCHAR
STARTCHAR one.osf
ENCODING -1
SWIDTH 456 0
DWIDTH 5 0
BBX 4 8 1 0
BITMAP
60
E0
60
60
60
60
60
F0
ENDCHAR
STARTCHAR two.osf
ENCODING -1
SWIDTH 456 0
DWIDTH 5 0
BBX 4 8 1 0
BITMAP
E0
B0
B0
30
60
C0
C0
F0
ENDCHAR
STARTCHAR three.osf
ENCODING -1
SWIDTH 456 0
DWIDTH 5 0
BBX 5 8 0 0
BITMAP
70
58
18
30
18
D8
58
70
ENDCHAR
STARTCHAR four.osf
ENCODING -1
SWIDTH 456 0
DWIDTH 5 0
BBX 5 8 0 0
BITMAP
30
30
70
50
50
F8
10
10
ENDCHAR
STARTCHAR five.osf
ENCODING -1
SWIDTH 456 0
DWIDTH 5 0
BBX 4 8 1 0
BITMAP
F0
80
80
E0
B0
10
B0
E0
ENDCHAR
STARTCHAR six.osf
ENCODING -1
SWIDTH 456 0
DWIDTH 5 0
BBX 4 8 1 0
BITMAP
E0
B0
80
E0
B0
B0
B0
E0
ENDCHAR
STARTCHAR seven.osf
ENCODING -1
SWIDTH 456 0
DWIDTH 5 0
BBX 4 8 1 0
BITMAP
F0
30
20
60
40
40
C0
C0
ENDCHAR
STARTCHAR eight.osf
ENCODING -1
SWIDTH 456 0
DWIDTH 5 0
BBX 4 8 1 0
BITMAP
E0
B0
B0
60
B0
B0
B0
E0
ENDCHAR
STARTCHAR nine.osf
ENCODING -1
SWIDTH 456 0
DWIDTH 5 0
BBX 4 8 1 0
BITMAP
E0
B0
B0
B0
F0
30
B0
E0
ENDCHAR
STARTCHAR zero.osf.zero
ENCODING -1
SWIDTH 456 0
DWIDTH 5 0
BBX 4 8 1 0
BITMAP
E0
B0
B0
B0
F0
F0
F0
E0
ENDCHAR
STARTCHAR zero.tf
ENCODING -1
SWIDTH 456 0
DWIDTH 5 0
BBX 5 9 0 0
BITMAP
70
58
C8
C8
C8
C8
C8
58
70
ENDCHAR
STARTCHAR one.tf
ENCODING -1
SWIDTH 456 0
DWIDTH 5 0
BBX 5 9 0 0
BITMAP
30
F0
30
30
30
30
30
30
F8
ENDCHAR
STARTCHAR two.tf
ENCODING -1
SWIDTH 456 0
DWIDTH 5 0
BBX 5 9 0 0
BITMAP
70
58
C8
18
18
30
60
40
F8
ENDCHAR
STARTCHAR three.tf
ENCODING -1
SWIDTH 456 0
DWIDTH 5 0
BBX 5 9 0 0
BITMAP
70
58
D8
18
30
18
C8
D8
70
ENDCHAR
STARTCHAR four.tf
ENCODING -1
SWIDTH 456 0
DWIDTH 5 0
BBX 5 9 0 0
BITMAP
30
28
78
78
58
D8
F8
18
18
ENDCHAR
STARTCHAR five.tf
ENCODING -1
SWIDTH 456 0
DWIDTH 5 0
BBX 5 9 0 0
BITMAP
78
40
40
70
58
08
C8
58
70
ENDCHAR
STARTCHAR six.tf
ENCODING -1
SWIDTH 456 0
DWIDTH 5 0
BBX 5 9 0 0
BITMAP
70
58
40
F0
D8
C8
C8
58
70
ENDCHAR
STARTCHAR seven.tf
ENCODING -1
SWIDTH 456 0
DWIDTH 5 0
BBX 5 9 0 0
BITMAP
F8
18
10
30
20
20
60
60
60
ENDCHAR
STARTCHAR eight.tf
ENCODING -1
SWIDTH 456 0
DWIDTH 5 0
BBX 5 9 0 0
BITMAP
70
58
58
58
70
58
C8
D8
70
ENDCHAR
STARTCHAR nine.tf
ENCODING -1
SWIDTH 456 0
DWIDTH 5 0
BBX 5 9 0 0
BITMAP
70
58
C8
D8
78
08
48
58
70
ENDCHAR
STARTCHAR zero.tf.zero
ENCODING -1
SWIDTH 456 0
DWIDTH 5 0
BBX 5 9 0 0
BITMAP
70
58
D8
E8
E8
E8
E8
58
70
ENDCHAR
STARTCHAR zero.tosf
ENCODING -1
SWIDTH 456 0
DWIDTH 5 0
BBX 4 8 1 0
BITMAP
E0
B0
B0
B0
B0
B0
B0
E0
ENDCHAR
STARTCHAR one.tosf
ENCODING -1
SWIDTH 456 0
DWIDTH 5 0
BBX 4 8 1 0
BITMAP
60
E0
60
60
60
60
60
F0
ENDCHAR
STARTCHAR two.tosf
ENCODING -1
SWIDTH 456 0
DWIDTH 5 0
BBX 4 8 1 0
BITMAP
E0
B0
B0
30
60
C0
C0
F0
ENDCHAR
STARTCHAR three.tosf
ENCODING -1
SWIDTH 456 0
DWIDTH 5 0
BBX 5 8 0 0
BITMAP
70
58
18
30
18
D8
58
70
ENDCHAR
STARTCHAR four.tosf
ENCODING -1
SWIDTH 456 0
DWIDTH 5 0
BBX 5 8 0 0
BITMAP
30
30
70
50
50
F8
10
10
ENDCHAR
STARTCHAR five.tosf
ENCODING -1
SWIDTH 456 0
DWIDTH 5 0
BBX 4 8 1 0
BITMAP
F0
80
80
E0
B0
10
B0
E0
ENDCHAR
STARTCHAR six.tosf
ENCODING -1
SWIDTH 456 0
DWIDTH 5 0
BBX 4 8 1 0
BITMAP
E0
B0
80
E0
B0
B0
B0
E0
ENDCHAR
STARTCHAR seven.tosf
ENCODING -1
SWIDTH 456 0
DWIDTH 5 0
BBX 4 8 1 0
BITMAP
F0
30
20
60
40
40
C0
C0
ENDCHAR
STARTCHAR eight.tosf
ENCODING -1
SWIDTH 456 0
DWIDTH 5 0
BBX 4 8 1 0
BITMAP
E0
B0
B0
60
B0
B0
B0
E0
ENDCHAR
STARTCHAR nine.tosf
ENCODING -1
SWIDTH 456 0
DWIDTH 5 0
BBX 4 8 1 0
BITMAP
E0
B0
B0
B0
F0
30
B0
E0
ENDCHAR
STARTCHAR zero.tosf.zero
ENCODING -1
SWIDTH 456 0
DWIDTH 5 0
BBX 4 8 1 0
BITMAP
E0
B0
B0
B0
F0
F0
F0
E0
ENDCHAR
STARTCHAR zero.zero
ENCODING -1
SWIDTH 456 0
DWIDTH 5 0
BBX 5 9 0 0
BITMAP
70
58
D8
E8
E8
E8
E8
58
70
ENDCHAR
STARTCHAR zero.dnom
ENCODING -1
SWIDTH 273 0
DWIDTH 3 0
BBX 3 5 0 0
BITMAP
60
A0
A0
A0
60
ENDCHAR
STARTCHAR one.dnom
ENCODING -1
SWIDTH 273 0
DWIDTH 3 0
BBX 3 5 0 0
BITMAP
40
C0
40
40
E0
ENDCHAR
STARTCHAR two.dnom
ENCODING -1
SWIDTH 273 0
DWIDTH 3 0
BBX 3 5 0 0
BITMAP
60
A0
20
40
E0
ENDCHAR
STARTCHAR three.dnom
ENCODING -1
SWIDTH 273 0
DWIDTH 3 0
BBX 3 5 0 0
BITMAP
60
A0
40
A0
60
ENDCHAR
STARTCHAR four.dnom
ENCODING -1
SWIDTH 273 0
DWIDTH 3 0
BBX 3 5 0 0
BITMAP
40
60
A0
E0
20
ENDCHAR
STARTCHAR five.dnom
ENCODING -1
SWIDTH 273 0
DWIDTH 3 0
BBX 3 5 0 0
BITMAP
60
80
E0
A0
60
ENDCHAR
STARTCHAR six.dnom
ENCODING -1
SWIDTH 273 0
DWIDTH 3 0
BBX 3 5 0 0
BITMAP
60
80
E0
A0
60
ENDCHAR
STARTCHAR seven.dnom
ENCODING -1
SWIDTH 273 0
DWIDTH 3 0
BBX 3 5 0 0
BITMAP
E0
20
40
40
40
ENDCHAR
STARTCHAR eight.dnom
ENCODING -1
SWIDTH 273 0
DWIDTH 3 0
BBX 3 5 0 0
BITMAP
60
A0
40
A0
60
ENDCHAR
STARTCHAR nine.dnom
ENCODING -1
SWIDTH 273 0
DWIDTH 3 0
BBX 3 5 0 0
BITMAP
60
A0
60
A0
60
ENDCHAR
STARTCHAR zero.numr
ENCODING -1
SWIDTH 273 0
DWIDTH 3 0
BBX 3 5 0 4
BITMAP
60
A0
A0
A0
60
ENDCHAR
STARTCHAR one.numr
ENCODING -1
SWIDTH 273 0
DWIDTH 3 0
BBX 3 5 0 4
BITMAP
C0
40
40
40
E0
ENDCHAR
STARTCHAR two.numr
ENCODING -1
SWIDTH 273 0
DWIDTH 3 0
BBX 3 5 0 4
BITMAP
60
A0
20
40
E0
ENDCHAR
STARTCHAR three.numr
ENCODING -1
SWIDTH 273 0
DWIDTH 3 0
BBX 3 5 0 4
BITMAP
60
A0
40
A0
60
ENDCHAR
STARTCHAR four.numr
ENCODING -1
SWIDTH 273 0
DWIDTH 3 0
BBX 3 5 0 4
BITMAP
40
60
A0
E0
20
ENDCHAR
STARTCHAR five.numr
ENCODING -1
SWIDTH 273 0
DWIDTH 3 0
BBX 3 5 0 4
BITMAP
60
80
E0
A0
60
ENDCHAR
STARTCHAR six.numr
ENCODING -1
SWIDTH 273 0
DWIDTH 3 0
BBX 3 5 0 4
BITMAP
60
80
E0
A0
60
ENDCHAR
STARTCHAR seven.numr
ENCODING -1
SWIDTH 273 0
DWIDTH 3 0
BBX 3 5 0 4
BITMAP
E0
20
40
40
40
ENDCHAR
STARTCHAR eight.numr
ENCODING -1
SWIDTH 273 0
DWIDTH 3 0
BBX 3 5 0 4
BITMAP
60
A0
40
A0
60
ENDCHAR
STARTCHAR nine.numr
ENCODING -1
SWIDTH 273 0
DWIDTH 3 0
BBX 3 5 0 4
BITMAP
60
A0
60
A0
60
ENDCHAR
STARTCHAR exclamdown.case
ENCODING -1
SWIDTH 273 0
DWIDTH 3 0
BBX 2 9 1 0
BITMAP
80
80
00
80
80
80
80
80
C0
ENDCHAR
STARTCHAR questiondown.case
ENCODING -1
SWIDTH 501 0
DWIDTH 6 0
BBX 5 9 1 0
BITMAP
60
60
00
60
40
C0
98
90
F0
ENDCHAR
STARTCHAR periodcentered.loclCAT.case
ENCODING -1
SWIDTH 273 0
DWIDTH 3 0
BBX 1 1 1 5
BITMAP
80
ENDCHAR
STARTCHAR periodcentered.loclCAT
ENCODING -1
SWIDTH 273 0
DWIDTH 3 0
BBX 1 1 1 5
BITMAP
80
ENDCHAR
STARTCHAR hyphen.case
ENCODING -1
SWIDTH 273 0
DWIDTH 3 0
BBX 3 1 0 4
BITMAP
E0
ENDCHAR
STARTCHAR uni00AD.case
ENCODING -1
SWIDTH 273 0
DWIDTH 3 0
BBX 3 1 0 4
BITMAP
E0
ENDCHAR
STARTCHAR endash.case
ENCODING -1
SWIDTH 456 0
DWIDTH 5 0
BBX 5 1 0 4
BITMAP
F8
ENDCHAR
STARTCHAR emdash.case
ENCODING -1
SWIDTH 820 0
DWIDTH 10 0
BBX 10 1 0 4
BITMAP
FFC0
ENDCHAR
STARTCHAR uni2011.case
ENCODING -1
SWIDTH 273 0
DWIDTH 3 0
BBX 3 1 0 4
BITMAP
E0
ENDCHAR
STARTCHAR ampersand.alt
ENCODING -1
SWIDTH 592 0
DWIDTH 7 0
BBX 7 9 0 0
BITMAP
38
4C
44
40
36
44
C4
4C
78
ENDCHAR
STARTCHAR uni0308.case
ENCODING -1
SWIDTH 0 0
DWIDTH 0 0
BBX 3 1 -3 8
BITMAP
A0
ENDCHAR
STARTCHAR uni0307.case
ENCODING -1
SWIDTH 0 0
DWIDTH 0 0
BBX 2 1 -2 8
BITMAP
C0
ENDCHAR
STARTCHAR gravecomb.case
ENCODING -1
SWIDTH 0 0
DWIDTH 0 0
BBX 2 1 -2 8
BITMAP
C0
ENDCHAR
STARTCHAR acutecomb.case
ENCODING -1
SWIDTH 0 0
DWIDTH 0 0
BBX 2 1 -2 8
BITMAP
C0
ENDCHAR
STARTCHAR uni030B.case
ENCODING -1
SWIDTH 0 0
DWIDTH 0 0
BBX 4 1 -4 8
BITMAP
F0
ENDCHAR
STARTCHAR uni0302.case
ENCODING -1
SWIDTH 0 0
DWIDTH 0 0
BBX 3 1 -3 8
BITMAP
E0
ENDCHAR
STARTCHAR uni030C.case
ENCODING -1
SWIDTH 0 0
DWIDTH 0 0
BBX 3 1 -3 8
BITMAP
E0
ENDCHAR
STARTCHAR uni0306.case
ENCODING -1
SWIDTH 0 0
DWIDTH 0 0
BBX 3 1 -3 8
BITMAP
E0
ENDCHAR
STARTCHAR uni030A.case
ENCODING -1
SWIDTH 0 0
DWIDTH 0 0
BBX 2 3 -2 6
BITMAP
C0
C0
C0
ENDCHAR
STARTCHAR tildecomb.case
ENCODING -1
SWIDTH 0 0
DWIDTH 0 0
BBX 4 1 -4 8
BITMAP
F0
ENDCHAR
STARTCHAR uni0304.case
ENCODING -1
SWIDTH 0 0
DWIDTH 0 0
BBX 3 1 -3 8
BITMAP
E0
ENDCHAR
STARTCHAR hookabovecomb.case
ENCODING -1
SWIDTH 0 0
DWIDTH 0 0
BBX 2 2 -2 7
BITMAP
C0
C0
ENDCHAR
STARTCHAR uni030F.case
ENCODING -1
SWIDTH 0 0
DWIDTH 0 0
BBX 4 1 -4 8
BITMAP
F0
ENDCHAR
STARTCHAR uni0311.case
ENCODING -1
SWIDTH 0 0
DWIDTH 0 0
BBX 3 1 -3 8
BITMAP
E0
ENDCHAR
STARTCHAR uni0312.case
ENCODING -1
SWIDTH 0 0
DWIDTH 0 0
BBX 1 2 -1 8
BITMAP
80
80
ENDCHAR
STARTCHAR uni031B.case
ENCODING -1
SWIDTH 0 0
DWIDTH 0 0
BBX 3 3 -3 6
BITMAP
20
20
E0
ENDCHAR
STARTCHAR dotbelowcomb.case
ENCODING -1
SWIDTH 0 0
DWIDTH 0 0
BBX 2 1 -2 -2
BITMAP
C0
ENDCHAR
STARTCHAR uni0324.case
ENCODING -1
SWIDTH 0 0
DWIDTH 0 0
BBX 3 1 -3 -2
BITMAP
A0
ENDCHAR
STARTCHAR uni0326.case
ENCODING -1
SWIDTH 0 0
DWIDTH 0 0
BBX 2 2 -2 -3
BITMAP
C0
40
ENDCHAR
STARTCHAR uni0327.case
ENCODING -1
SWIDTH 0 0
DWIDTH 0 0
BBX 2 2 -2 -2
BITMAP
C0
C0
ENDCHAR
STARTCHAR uni0328.case
ENCODING -1
SWIDTH 0 0
DWIDTH 0 0
BBX 2 3 -2 -2
BITMAP
40
80
C0
ENDCHAR
STARTCHAR uni032E.case
ENCODING -1
SWIDTH 0 0
DWIDTH 0 0
BBX 3 2 -3 -2
BITMAP
A0
E0
ENDCHAR
STARTCHAR uni0331.case
ENCODING -1
SWIDTH 0 0
DWIDTH 0 0
BBX 3 1 -3 -2
BITMAP
E0
ENDCHAR
STARTCHAR acute.loclPLK
ENCODING -1
SWIDTH 177 0
DWIDTH 2 0
BBX 2 2 0 8
BITMAP
40
80
ENDCHAR
STARTCHAR uni03060301
ENCODING -1
SWIDTH 0 0
DWIDTH 0 0
BBX 3 3 -3 8
BITMAP
60
00
E0
ENDCHAR
STARTCHAR uni03060300
ENCODING -1
SWIDTH 0 0
DWIDTH 0 0
BBX 3 3 -3 8
BITMAP
C0
00
E0
ENDCHAR
STARTCHAR uni03060309
ENCODING -1
SWIDTH 0 0
DWIDTH 0 0
BBX 3 3 -3 8
BITMAP
40
60
E0
ENDCHAR
STARTCHAR uni03060303
ENCODING -1
SWIDTH 0 0
DWIDTH 0 0
BBX 4 3 -4 8
BITMAP
50
B0
70
ENDCHAR
STARTCHAR uni03020301
ENCODING -1
SWIDTH 0 0
DWIDTH 0 0
BBX 3 4 -3 7
BITMAP
60
40
40
A0
ENDCHAR
STARTCHAR uni03020300
ENCODING -1
SWIDTH 0 0
DWIDTH 0 0
BBX 3 4 -3 7
BITMAP
C0
00
40
A0
ENDCHAR
STARTCHAR uni03020309
ENCODING -1
SWIDTH 0 0
DWIDTH 0 0
BBX 3 4 -3 7
BITMAP
60
40
40
A0
ENDCHAR
STARTCHAR uni03020303
ENCODING -1
SWIDTH 0 0
DWIDTH 0 0
BBX 4 4 -4 7
BITMAP
50
B0
60
70
ENDCHAR
ENDFONT
